<?xml version="1.0" encoding="UTF-8"?><svg id="Layer_2" xmlns="http://www.w3.org/2000/svg" viewBox="0 0 212.56 212.56"><g id="Layer_1-2"><path d="M28.34,1.5h160.85c12.07,0,21.87,9.8,21.87,21.87v165.11c0,12.46-10.12,22.58-22.58,22.58H31.43c-16.52,0-29.93-13.41-29.93-29.93V28.34C1.5,13.53,13.53,1.5,28.34,1.5Z" style="fill:#fff; stroke:#000; stroke-miterlimit:10; stroke-width:3px;"/><polygon points="100.52 42.37 100.58 120.91 167.33 67.77 100.66 121 132.1 121.86 100.63 121.12 137.78 161.32 100.52 121.17 76.03 171.95 100.41 121.12 46.69 121.75 100.39 121 42.01 74.39 100.46 120.91 100.52 42.37" style="fill:#fff; stroke:#000; stroke-miterlimit:10; stroke-width:4.52px;"/><circle cx="167.33" cy="67.77" r="12.34"/><circle cx="51.13" cy="121.75" r="12.34"/><circle cx="100.52" cy="42.37" r="11.45"/><circle cx="143.55" cy="160.5" r="11.45"/><circle cx="134.43" cy="121.75" r="9.12"/><circle cx="100.52" cy="120.35" r="10.76"/><circle cx="42.01" cy="76.89" r="9.12"/><circle cx="77.09" cy="172.77" r="9.12"/></g></svg>