<?xml version="1.0" encoding="UTF-8"?><svg id="Layer_2" xmlns="http://www.w3.org/2000/svg" viewBox="0 0 212.56 212.56"><g id="Layer_1-2"><path d="M28.34,1.5h160.85c12.07,0,21.87,9.8,21.87,21.87v165.11c0,12.46-10.12,22.58-22.58,22.58H31.43c-16.52,0-29.93-13.41-29.93-29.93V28.34C1.5,13.53,13.53,1.5,28.34,1.5Z" style="fill:#fff; stroke:#000; stroke-miterlimit:10; stroke-width:3px;"/><path d="M69.29,147.29c.05-.47-.29-.68-.53-.02-4.91,2.12-9.65,4.58-15.34,5.13-11.48,1.41-22.13-5.27-26.53-15.51-4.57-10.63-1.78-23.02,7.67-30.62-9.44-7.7-12.43-20.33-7.41-31.49s16.76-16.81,28.71-14.44c4.88.87,8.84,2.97,13.64,4.99-2.42-5.02-4.22-9.36-5.11-14.52-2.1-12.1,4.42-23.75,15.8-28.08,10.66-4.06,22.78-1.31,30.09,7.86,5.95-7.31,14.89-10.69,24.24-9.4,14.52,2.01,24.04,15.3,21.56,29.7-.74,5.13-2.84,9.47-5.11,14.5,4.66-2.28,8.82-4.09,13.76-5.09,15.72-3.17,30.22,8.07,31.01,24.12.41,8.41-2.91,16.19-9.74,21.72,9.06,7.38,12.14,19.38,7.93,30.01-4.09,10.32-14.32,17.23-25.83,16.35-6.25-.48-11.54-3.04-17.2-5.8,2.82,5.81,5.04,11.13,5.5,17.33.85,11.35-5.91,21.59-15.98,25.65-10.74,4.33-22.77,1.21-30.16-7.91-8.01,9.9-21.14,12.52-32.07,6.99s-16.51-17.75-13.21-30.01c.74-4.11,2.82-7.51,4.31-11.48ZM113.99,97.02l12.13-11.88c8.64-8.47,16.04-17.74,20.81-29.01,1.79-4.24,2.77-8.59,1.93-12.97-1.58-8.25-8.43-13.81-16.12-14.7-8.4-.97-16.04,3.58-19.44,11.14-.59,1.31-2.31,1.77-3.44,1.68-.92-.08-2.26-.69-2.78-1.86-4.31-9.73-15.62-13.81-25.38-9.22-6.86,3.22-10.96,10.11-10.27,17.77.88,9.74,10.92,25.16,17.51,31.68l17.45,17.23.17-39.3c0-2.22,1.76-3.78,3.72-3.78s3.58,1.53,3.59,3.79l.12,39.45ZM61.38,109.87c-2.47-.02-3.59-2.38-3.39-4.08s1.53-3.19,3.65-3.2l39.31-.22-17.21-17.53c-5.38-5.48-11.79-9.42-18.36-13.26-4.23-1.82-8.19-3.84-12.91-4.35-9.49-1.05-17.71,5.32-19.89,14.3s2.5,17.88,10.86,21.5c1.41.61,2.11,2.44,1.96,3.66-.16,1.28-1.08,2.38-2.39,2.96-6.61,2.9-10.81,9.64-10.9,16.56-.09,7.49,4.06,13.94,10.81,17.31,4.45,2.23,9.04,2.15,13.96.83,8.91-3.48,17.36-7.8,24.23-14.58l19.86-19.61-39.58-.29ZM132.75,123.42c8.89,8.93,18.84,16.43,30.67,20.7,5.98,2.16,12.15,1.26,17.37-2.5,4.5-3.25,7.54-8.84,7.57-14.98.04-7.66-4.34-14.21-11.2-17.18-1.31-.57-2.2-2.04-2.15-3.2.06-1.25.79-2.63,2.11-3.23,8.37-3.76,12.89-12.67,10.71-21.75-1.97-8.2-9.63-14.86-18.8-14.09-11.59.97-26.5,11.61-34.41,19.73l-15.05,15.46,39.42.22c2.42.01,3.7,2.02,3.48,4.1s-1.72,3.22-3.98,3.23l-38.96.21,13.23,13.28ZM105.75,115.7l-14.54,14.67c-8.04,8.11-14.63,17.56-18.55,28.31-3.63,9.97.82,19.95,9.94,23.99s19.99-.02,24.52-9.47c.6-1.24,1.79-1.91,2.73-2,4.79-.46,3.4,5.99,11.64,10.72,5.32,3.05,11.7,3.16,17.65.2,4.45-2.21,8.66-6.93,9.71-12.84,2-11.25-9.14-28.24-16.12-35.29l-18.71-18.88-.17,39.31c-.01,2.36-1.58,3.99-3.55,3.98-2.24-.01-3.76-1.54-3.75-3.98l.05-38.31c0-.23.28-.48.12-.76-.22-.37-.74-.4-.96.34Z" style="fill:#010201;"/><path d="M69.29,147.29c-.17-.03-.35-.04-.53-.02.23-.66.58-.45.53.02Z" style="fill:#fff;"/><path d="M132.75,123.42l-13.23-13.28,38.96-.21c2.26-.01,3.77-1.24,3.98-3.23s-1.05-4.08-3.48-4.1l-39.42-.22,15.05-15.46c7.91-8.13,22.82-18.76,34.41-19.73,9.17-.77,16.83,5.9,18.8,14.09,2.18,9.08-2.34,17.99-10.71,21.75-1.32.59-2.05,1.98-2.11,3.23-.06,1.16.84,2.63,2.15,3.2,6.86,2.97,11.24,9.52,11.2,17.18-.04,6.14-3.07,11.74-7.57,14.98-5.22,3.76-11.39,4.66-17.37,2.5-11.83-4.27-21.78-11.77-30.67-20.7Z" style="fill:#46a44a;"/><path d="M61.38,109.87l39.58.29-19.86,19.61c-6.87,6.78-15.32,11.1-24.23,14.58-4.92,1.32-9.51,1.4-13.96-.83-6.74-3.37-10.9-9.82-10.81-17.31.09-6.92,4.29-13.66,10.9-16.56,1.32-.58,2.23-1.68,2.39-2.96s-.55-3.05-1.96-3.66c-8.36-3.63-12.98-12.8-10.86-21.5s10.4-15.35,19.89-14.3c4.72.52,8.68,2.53,12.91,4.35,6.56,3.84,12.97,7.77,18.36,13.26l17.21,17.53-39.31.22c-2.12.01-3.44,1.43-3.65,3.2s.92,4.06,3.39,4.08Z" style="fill:#46a44a;"/><path d="M105.75,115.7c.3.08.48.56.84.42l-.05,38.31c0,2.44,1.51,3.97,3.75,3.98,1.96.01,3.54-1.62,3.55-3.98l.17-39.31,18.71,18.88c6.98,7.05,18.12,24.04,16.12,35.29-1.05,5.91-5.26,10.63-9.71,12.84-5.95,2.96-12.33,2.85-17.65-.2-8.25-4.73-6.85-11.18-11.64-10.72-.93.09-2.13.76-2.73,2-4.53,9.45-15.05,13.67-24.52,9.47s-13.57-14.02-9.94-23.99c3.92-10.75,10.51-20.19,18.55-28.31l14.54-14.67Z" style="fill:#47a44a;"/><path d="M113.99,97.02l-.12-39.45c0-2.26-1.66-3.79-3.59-3.79s-3.71,1.56-3.72,3.78l-.17,39.3-17.45-17.23c-6.59-6.51-16.63-21.93-17.51-31.68-.69-7.65,3.41-14.54,10.27-17.77,9.76-4.58,21.06-.5,25.38,9.22.52,1.17,1.86,1.79,2.78,1.86,1.13.09,2.85-.37,3.44-1.68,3.4-7.57,11.04-12.12,19.44-11.14,7.69.89,14.54,6.45,16.12,14.7.84,4.37-.14,8.73-1.93,12.97-4.76,11.27-12.17,20.54-20.81,29.01l-12.13,11.88Z" style="fill:#46a449;"/><path d="M106.59,116.11c-.36.14-.55-.33-.84-.42.22-.74.75-.71.96-.34.16.27-.12.53-.12.76Z" style="fill:#395737;"/></g></svg>