<?xml version="1.0" encoding="UTF-8"?><svg id="Layer_2" xmlns="http://www.w3.org/2000/svg" viewBox="0 0 212.56 212.56"><g id="Layer_1-2"><path d="M28.34,1.5h160.85c12.07,0,21.87,9.8,21.87,21.87v165.11c0,12.46-10.12,22.58-22.58,22.58H31.43c-16.52,0-29.93-13.41-29.93-29.93V28.34C1.5,13.53,13.53,1.5,28.34,1.5Z" style="fill:#fff; stroke:#000; stroke-miterlimit:10; stroke-width:3px;"/><path d="M135.39,191.65l-46.26.03c-1.59,0-2.56-1.33-3.06-2.28-.68-1.27-.36-2.52.47-3.78,5.55-8.39,10.46-17.35,12.5-27.63-18.76,13.54-43.62,9.72-57.46-8.22-9.47-12.28-11.85-28.35-6.8-43.18,4.88-14.33,16.41-27.74,27.43-37.91l24.93-23.02c7.89-7.29,14.97-14.62,21.65-23.02,1.61-2.03,4.39-2.52,6.16-.36,7.06,8.6,14.4,16.34,22.58,23.88l25.05,23.1c11.88,10.95,24.27,26.02,28.05,42.14,3.33,14.18-.03,28.66-9.04,39.55-14.05,16.97-37.89,20.29-56.4,6.95,2.19,10.24,6.76,19.06,12.41,27.4.78,1.15,1.38,2.82.77,3.93-.44.8-1.05,2.41-2.97,2.41ZM128.1,184.2c-7.14-11.91-10.8-23.87-12.17-36.7-.12-1.97.77-3.45,2.62-4.07,1.33-.45,3.13-.03,4.15,1.54,1.36,2.09,3.08,3.56,4.88,5.19,13.66,12.32,34.41,11.33,46.98-2.34,9-9.79,11.93-23.02,8.58-35.92-4.15-16-17.62-29.37-29.3-40.76l-22.95-21.17c-6.8-6.27-12.87-12.54-18.89-19.63-5.67,6.91-11.54,13.05-18.17,19.14l-23.73,21.76c-13.3,12.71-28.86,28.49-30.32,47.85-1.15,15.28,6.52,29.66,20.24,36.39,9.7,4.76,21.32,4.3,30.78-1.01,9.84-5.53,11-12.62,15.24-10.83,1.27.54,2.33,1.93,2.17,3.81-1.1,13.09-5.05,25.22-12.02,36.8l31.91-.04Z" style="fill:#4b9aef;"/><path d="M128.1,184.2l-31.91.04c6.96-11.58,10.91-23.71,12.02-36.8.16-1.89-.9-3.28-2.17-3.81-4.24-1.79-5.4,5.31-15.24,10.83-9.46,5.31-21.08,5.77-30.78,1.01-13.71-6.73-21.39-21.11-20.24-36.39,1.46-19.36,17.02-35.14,30.32-47.85l23.73-21.76c6.64-6.09,12.51-12.23,18.17-19.14,6.02,7.09,12.09,13.36,18.89,19.63l22.95,21.17c11.69,11.38,25.15,24.76,29.3,40.76,3.35,12.91.41,26.14-8.58,35.92-12.57,13.67-33.31,14.66-46.98,2.34-1.81-1.63-3.53-3.1-4.88-5.19-1.02-1.57-2.83-1.99-4.15-1.54-1.85.62-2.74,2.1-2.62,4.07,1.37,12.82,5.04,24.78,12.17,36.7ZM92.53,72.15c3.14-2.7,6.08-5.32,9.05-8.16,1.62-1.54,1.78-3.82.56-5.23-1.42-1.63-3.82-1.71-5.43-.14-2.95,2.89-5.86,5.55-9.01,8.17-1.71,1.42-1.59,3.83-.52,5.08,1.42,1.66,3.66,1.71,5.35.27ZM57.77,111.88c4.6-10.96,13.46-19.58,21.82-27.69,1.5-1.46,1.64-3.63.33-5.09-1.21-1.34-3.61-1.55-5.13-.14-6.61,6.12-12.78,12.45-18,19.81-4.74,6.68-7.98,14-8.38,22.21-.12,2.49,1.03,4.4,3.51,4.52,5.51.25,2.61-5.86,5.87-13.62Z" style="fill:#970aea;"/><path d="M57.77,111.88c-3.26,7.76-.36,13.88-5.87,13.62-2.48-.11-3.63-2.02-3.51-4.52.4-8.21,3.64-15.53,8.38-22.21,5.23-7.36,11.4-13.7,18-19.81,1.52-1.41,3.92-1.2,5.13.14,1.31,1.46,1.17,3.63-.33,5.09-8.35,8.11-17.22,16.73-21.82,27.69Z" style="fill:#fff;"/><path d="M92.53,72.15c-1.68,1.45-3.92,1.39-5.35-.27-1.08-1.25-1.19-3.66.52-5.08,3.15-2.62,6.06-5.28,9.01-8.17,1.6-1.57,4.01-1.49,5.43.14,1.22,1.4,1.06,3.68-.56,5.23-2.97,2.83-5.91,5.46-9.05,8.16Z" style="fill:#fff;"/></g></svg>