<?xml version="1.0" encoding="UTF-8"?><svg id="Layer_2" xmlns="http://www.w3.org/2000/svg" viewBox="0 0 212.56 212.56"><g id="Layer_1-2"><path d="M28.34,1.5h160.85c12.07,0,21.87,9.8,21.87,21.87v165.11c0,12.46-10.12,22.58-22.58,22.58H31.43c-16.52,0-29.93-13.41-29.93-29.93V28.34C1.5,13.53,13.53,1.5,28.34,1.5Z" style="fill:#fff; stroke:#000; stroke-miterlimit:10; stroke-width:3px;"/><path d="M109.51,187.05c-1.81,2.3-4.87,1.96-6.48-.06-7.29-9.13-15.09-17.42-23.62-25.39l-16.52-15.43c-12.66-11.83-27.28-26.99-35.34-42.57-13-25.12-7.57-56.39,16.34-72.35,21.65-13.54,48.03-7.87,62.42,13.45,14.51-22.38,44.4-27.58,65.52-11.2,11.56,8.97,18.65,22.57,19.87,37.54,2.1,25.7-13.11,45.7-29.91,63.12-18.48,19.15-35.13,31.12-52.27,52.89ZM139.72,145.38c8.76-8.22,17.02-15.99,24.6-24.88,12.39-14.52,22.37-30.64,19.96-50.59-1.79-14.75-10.26-28.03-23.69-34.78-12.97-6.51-27.52-4.89-38.92,3.68-5.52,4.14-9.11,9.34-12.6,15.36-.99,1.71-4.72,1.3-5.69-.28-3.37-5.53-6.75-10.52-11.92-14.55-5.85-4.57-12.68-7.57-20.13-8.08-23.73-1.6-42.19,18.64-43.25,41.59-.39,8.55.88,16.36,4.45,24.09,9.15,19.81,26.75,35.43,42.51,50.41l14.51,13.79c4.08,3.88,7.68,7.85,11.42,11.89,1.81,1.96,3.21,4.14,5.41,6l7.89-9.02c7.83-8.95,16.6-16.35,25.45-24.65Z" style="fill:#020101;"/><path d="M139.72,145.38c-8.85,8.3-17.61,15.69-25.45,24.65l-7.89,9.02c-2.19-1.86-3.59-4.04-5.41-6-3.74-4.04-7.34-8.01-11.42-11.89l-14.51-13.79c-15.76-14.99-33.36-30.6-42.51-50.41-3.57-7.73-4.85-15.54-4.45-24.09,1.06-22.95,19.52-43.19,43.25-41.59,7.45.5,14.28,3.51,20.13,8.08,5.17,4.03,8.54,9.03,11.92,14.55.97,1.59,4.7,1.99,5.69.28,3.49-6.02,7.08-11.21,12.6-15.36,11.4-8.57,25.95-10.19,38.92-3.68,13.43,6.75,21.9,20.03,23.69,34.78,2.42,19.94-7.57,36.06-19.96,50.59-7.58,8.89-15.85,16.66-24.6,24.88ZM54.38,55.44c9.86-9.16,17.88-3.53,18.05-9.19.05-1.79-.78-4.03-3.09-4.04-17.32-.08-31.38,16.22-30.14,33.47.13,1.83,2.42,2.68,3.9,2.49s3.18-1.38,3.17-3.37c-.06-7.43,2.64-14.27,8.12-19.36Z" style="fill:#900fba;"/><path d="M54.38,55.44c-5.48,5.09-8.17,11.94-8.12,19.36.01,1.99-1.66,3.18-3.17,3.37s-3.77-.66-3.9-2.49c-1.23-17.25,12.83-33.56,30.14-33.47,2.31.01,3.14,2.25,3.09,4.04-.16,5.67-8.19.03-18.05,9.19Z" style="fill:#fff;"/></g></svg>