<?xml version="1.0" encoding="UTF-8"?><svg id="Layer_2" xmlns="http://www.w3.org/2000/svg" viewBox="0 0 212.56 212.56"><g id="Layer_1-2"><path d="M28.34,1.5h160.85c12.07,0,21.87,9.8,21.87,21.87v165.11c0,12.46-10.12,22.58-22.58,22.58H31.43c-16.52,0-29.93-13.41-29.93-29.93V28.34C1.5,13.53,13.53,1.5,28.34,1.5Z" style="fill:#fff; stroke:#000; stroke-miterlimit:10; stroke-width:3px;"/><g id="Generative_Object"><path d="M106.33,159.71l-48.57,27.09c-1.62.9-3.06.99-4.35.16s-1.99-2.26-1.64-4.16l10.41-55.18-40.22-38.93c-1.25-1.21-1.5-2.53-1.13-3.89.26-.97,1.17-2.37,2.85-2.6l55.31-7.39,24.08-49.89c.76-1.57,2.39-2.03,3.74-1.91s2.34,1.18,3.06,2.67l23.66,49.1,54.6,7.29c1.74.23,2.91.89,3.45,2.24s.41,3.02-.84,4.22l-40.41,39.13,10.61,56.06c.28,1.5-1.13,2.83-1.94,3.4-.93.65-2.81.42-4.15-.33l-48.52-27.1ZM106.61,151.78l44.13,24.26c.59.32.58.59.99.33.7-.44.28-.65.15-1.32l-9.16-48.77c-.3-1.57,1.45-2.86,2.41-3.78l35.05-33.98-49.43-6.65c-1.5-.2-2.67-.96-3.17-2.36l-18.48-37.71c-.35-2.13-1.8-3.83-2.86-6.39l-21.49,44.61c-.65,1.27-1.46,1.69-2.77,1.87l-49.53,6.67,36.02,34.94c1.13,1.07,1.51,2.2,1.21,3.79l-9.24,49.54,42.89-23.91c1.14-.64,2.05-1.31,3.25-1.14Z" style="fill:#020201;"/><path d="M109.11,41.8l18.48,37.71c.5,1.4,1.67,2.16,3.17,2.36l49.43,6.65-35.05,33.98c-.95.92-2.7,2.21-2.41,3.78l9.16,48.77c.12.66.54.88-.15,1.32-.41.26-.4-.01-.99-.33l-44.13-24.26c-.19-.52-.4-1.14-1.08-.56-1.19,0-.9-.66.59-.55l.02-113.67c1.1,1.61,2.2,3.24,2.97,4.8Z" style="fill:#077707;"/><path d="M109.11,41.8c-.76-1.56-1.86-3.19-2.97-4.8l-.02,113.67c-1.49-.12-1.78.54-.59.55.67-.58.89.04,1.08.56-1.2-.17-2.11.5-3.25,1.14l-42.89,23.91,9.24-49.54c.3-1.58-.08-2.72-1.21-3.79l-36.02-34.94,49.53-6.67c1.31-.18,2.12-.6,2.77-1.87l21.49-44.61c1.06,2.56,2.5,4.26,2.86,6.39Z" style="fill:#02a302;"/></g></g></svg>