<?xml version="1.0" encoding="UTF-8"?><svg id="Layer_2" xmlns="http://www.w3.org/2000/svg" viewBox="0 0 212.56 212.56"><g id="Layer_1-2"><path id="Dixce" d="M28.34,1.5h160.85c12.07,0,21.87,9.8,21.87,21.87v165.11c0,12.46-10.12,22.58-22.58,22.58H31.43c-16.52,0-29.93-13.41-29.93-29.93V28.34C1.5,13.53,13.53,1.5,28.34,1.5Z" style="fill:#fff; stroke:#000; stroke-miterlimit:10; stroke-width:3px;"/><polygon points="87.94 191.84 29.26 20.72 146.62 20.72 87.94 191.84" style="fill:#fff; stroke:#000; stroke-miterlimit:10; stroke-width:3px;"/><circle cx="118.66" cy="32.75" r="7.24"/><circle cx="87.94" cy="32.75" r="7.24"/><circle cx="57.23" cy="32.75" r="7.24"/><polygon points="156.67 89.52 191.33 191.16 122.01 191.16 156.67 89.52" style="fill:#fff; stroke:#000; stroke-miterlimit:10; stroke-width:3px;"/><circle cx="144.29" cy="178.64" r="7.24"/><circle cx="169.55" cy="178.64" r="7.24"/></g></svg>