<?xml version="1.0" encoding="UTF-8"?><svg xmlns="http://www.w3.org/2000/svg" xmlns:xlink="http://www.w3.org/1999/xlink" viewBox="0 0 55.58 47.39"><defs><radialGradient id="_횂횁_횕_횑횑_횊_횏횂횑횣_62" cx="20.13" cy="-36.62" fx="20.13" fy="-36.62" r="25.44" gradientTransform="translate(16.12 73.78) rotate(-11.42)" gradientUnits="userSpaceOnUse"><stop offset="0" stop-color="#247eff"/><stop offset="1" stop-color="#04c0e8"/></radialGradient><radialGradient id="_횂횁_횕_횑횑_횊_횏횂횑횣_80" cx="25.69" cy="43.78" fx="25.69" fy="43.78" r="16.55" gradientUnits="userSpaceOnUse"><stop offset="0" stop-color="#68fffe"/><stop offset="1" stop-color="#24f2ff"/></radialGradient><radialGradient id="_횂횁_횕_횑횑_횊_횏횂횑횣_53" cx="25.15" cy="13.43" fx="25.15" fy="13.43" r="20.16" gradientUnits="userSpaceOnUse"><stop offset="0" stop-color="#68fffe"/><stop offset="1" stop-color="#24c7ff"/></radialGradient><radialGradient id="_횂횁_횕_횑횑_횊_횏횂횑횣_53-2" cx="4.53" cy="30.81" fx="4.53" fy="30.81" r="1.72" xlink:href="#_횂횁_횕_횑횑_횊_횏횂횑횣_53"/><linearGradient id="_횂횁_횕_횑횑_횊_횏횂횑횣_77" x1="14.68" y1="34.45" x2="14.68" y2="3.94" gradientUnits="userSpaceOnUse"><stop offset="0" stop-color="#000"/><stop offset="1" stop-color="#4590c2"/></linearGradient></defs><g style="isolation:isolate;"><g id="Layer_2"><g id="game"><path d="M55.58,24.7l-9.43,19.46s-23.38,9.51-39.92-4.13l-4.01-8.49,4.63-.93-5.61-1.15-1.23-2.61,1.86-8.24,6.34-11.33s25.63-14.59,42.09,1.54l5.28,15.88Z" style="fill:url(#_횂횁_횕_횑횑_횊_횏횂횑횣_62); fill-rule:evenodd;"/><path d="M8.2,36.32s-3.61-3.55-3.68-11.64c-.06-8.1,1.7-16.87,1.7-16.87L1.62,16.96,0,26.85l1.23,2.61,2.98.61-2,1.48,4.01,8.49,1.98-3.72Z" style="fill:#4057c9; fill-rule:evenodd; mix-blend-mode:multiply; opacity:.2;"/><path d="M6.23,40.04l1.98-3.72s11.75,14.01,36.78,5.28l1.16,2.56s-25.15,9.48-39.92-4.12Z" style="fill:url(#_횂횁_횕_횑횑_횊_횏횂횑횣_80); fill-rule:evenodd;"/><path d="M50.3,8.82l-4.1-5.32S29.57-5.45,6.86,5.27L1.62,16.96,0,26.85l1.87-8.24,6.33-11.33s20.02-11.12,42.1,1.54Z" style="fill:url(#_횂횁_횕_횑횑_횊_횏횂횑횣_53); fill-rule:evenodd;"/><polygon points="6.86 5.27 8.2 7.28 1.87 18.61 0 26.85 1.62 16.96 6.86 5.27" style="fill:#76ffea; fill-rule:evenodd;"/><polygon points="6.26 10.75 14.22 4.86 7.5 6.22 6.26 10.75" style="fill:#76ffea; fill-rule:evenodd;"/><polygon points="23.54 2.98 26.65 4.2 37.58 3.83 31.13 2.46 23.54 2.98" style="fill:#76ffea; fill-rule:evenodd;"/><path d="M31.1,47.3l4.79-.97,9.1-4.73,6.04-7.51-4.88,10.07s-8.76,3.2-15.04,3.14Z" style="fill:#2781cd; fill-rule:evenodd;"/><polygon points="54.63 21.86 43.76 26.2 30.02 28.98 54.63 21.86" style="fill:#2781cd; fill-rule:evenodd;"/><polygon points="41.79 5 47.87 8.77 50.24 12.51 53.63 18.87 50.3 8.82 46.33 6.54 41.79 5" style="fill:#76ffea; fill-rule:evenodd;"/><polygon points="6.26 10.75 2.89 18.76 1.98 23.34 0 26.85 1.87 18.61 6.26 10.75" style="fill:#2781cd; fill-rule:evenodd;"/><polygon points="40.14 26.94 44.13 26.6 50.47 23.52 40.14 26.94" style="fill:#76ffea; fill-rule:evenodd;"/><polygon points="2.21 31.54 4.21 30.07 6.84 30.61 2.21 31.54" style="fill:url(#_횂횁_횕_횑횑_횊_횏횂횑횣_53-2); fill-rule:evenodd;"/><polygon points="13.79 44.61 15.79 40.34 14.52 44.92 13.79 44.61" style="fill:#2781cd; fill-rule:evenodd;"/><polygon points="17.07 7.97 22.02 7.56 19.95 7.29 17.07 7.97" style="fill:#2781cd; fill-rule:evenodd;"/><polygon points="31.26 42.96 35.41 40.11 33.53 42.5 31.26 42.96" style="fill:#2781cd; fill-rule:evenodd;"/><polygon points="54.05 20.1 54.05 25.23 52.97 30.07 55.58 24.7 54.05 20.1" style="fill:#2781cd; fill-rule:evenodd;"/><polygon points="48.35 33.9 46.65 37.62 43.9 41.53 48.35 33.9" style="fill:#2781cd; fill-rule:evenodd;"/><polygon points="41.79 41.8 45.31 36.95 43.55 40.11 41.79 41.8" style="fill:#2781cd; fill-rule:evenodd;"/><polygon points="17.82 3.94 7.76 34.45 21.61 23.48 17.82 3.94" style="fill:url(#_횂횁_횕_횑횑_횊_횏횂횑횣_77); fill-rule:evenodd; mix-blend-mode:screen; opacity:.5;"/><polygon points="16.05 38.53 21.61 23.48 55.58 24.7 16.05 38.53" style="fill:#818dff; fill-rule:evenodd; mix-blend-mode:multiply; opacity:.2;"/></g></g></g></svg>