<?xml version="1.0" encoding="UTF-8"?><svg xmlns="http://www.w3.org/2000/svg" xmlns:xlink="http://www.w3.org/1999/xlink" viewBox="0 0 107.1 74.83"><defs><radialGradient id="_횂횁_횕_횑횑_횊_횏횂횑횣_53" cx="54.62" cy="7.34" fx="54.62" fy="7.34" r="37.47" gradientUnits="userSpaceOnUse"><stop offset="0" stop-color="#68fffe"/><stop offset="1" stop-color="#24c7ff"/></radialGradient><radialGradient id="_횂횁_횕_횑횑_횊_횏횂횑횣_62" cx="53.55" cy="64.17" fx="53.55" fy="64.17" r="45.4" gradientUnits="userSpaceOnUse"><stop offset="0" stop-color="#247eff"/><stop offset="1" stop-color="#04c0e8"/></radialGradient><radialGradient id="_횂횁_횕_횑횑_횊_횏횂횑횣_53-2" cx="96.16" cy="56.43" fx="96.16" fy="56.43" r="3.75" xlink:href="#_횂횁_횕_횑횑_횊_횏횂횑횣_53"/><radialGradient id="_횂횁_횕_횑횑_횊_횏횂횑횣_80" cx="52.31" cy="68.91" fx="52.31" fy="68.91" r="34.2" gradientUnits="userSpaceOnUse"><stop offset="0" stop-color="#68fffe"/><stop offset="1" stop-color="#24f2ff"/></radialGradient><radialGradient id="_횂횁_횕_횑횑_횊_횏횂횑횣_53-3" cx="14.06" cy="24.77" fx="14.06" fy="24.77" r="9.43" xlink:href="#_횂횁_횕_횑횑_횊_횏횂횑횣_53"/><radialGradient id="_횂횁_횕_횑횑_횊_횏횂횑횣_53-4" cx="60.39" cy="5.09" fx="60.39" fy="5.09" r="1.85" xlink:href="#_횂횁_횕_횑횑_횊_횏횂횑횣_53"/><radialGradient id="_횂횁_횕_횑횑_횊_횏횂횑횣_53-5" cx="39.29" cy="26.96" fx="39.29" fy="26.96" r="3.4" xlink:href="#_횂횁_횕_횑횑_횊_횏횂횑횣_53"/><linearGradient id="_횂횁_횕_횑횑_횊_횏횂횑횣_78" x1="56.29" y1="52.97" x2="56.29" y2="6.28" gradientUnits="userSpaceOnUse"><stop offset="0" stop-color="#4590c2"/><stop offset="1" stop-color="#000"/></linearGradient></defs><g style="isolation:isolate;"><g id="Layer_2"><g id="game"><path d="M2.15,10.07s3.03-5.27,7.58-7.16c0,0,60.17-.69,84.77-2.91,0,0,11.18,3.33,12.59,14.67L2.15,10.07Z" style="fill:url(#_횂횁_횕_횑횑_횊_횏횂횑횣_53); fill-rule:evenodd;"/><path d="M102.51,55.55l-11.56-.05,10.44,1.85-1.08,8.01-.26,1.97c-1.66,6.55-11.11,7.5-11.11,7.5H15.84c-9.46-1.58-11.53-7.5-11.53-7.5L.77,25.69h26.6L.57,23.37,0,16.76C0,7.27,10.09,4.9,10.09,4.9l82.7-.91c12.57-.06,14.31,10.68,14.31,10.68l-4.59,40.88Z" style="fill:url(#_횂횁_횕_횑횑_횊_횏횂횑횣_62); fill-rule:evenodd;"/><path d="M4.91,23.74l-4.34-.37L0,16.76C1.2,6.37,9.73,2.9,9.73,2.9c-4.62,4.46-5.71,11.77-5.71,11.77l.89,9.07Z" style="fill:#4057c9; fill-rule:evenodd; mix-blend-mode:multiply; opacity:.4;"/><polygon points="4.96 24.22 8.77 62.98 4.31 67.33 .77 25.69 4.96 24.22" style="fill:#4057c9; fill-rule:evenodd; mix-blend-mode:multiply; opacity:.4;"/><path d="M94.5,0s8.06,4.97,8.53,11.2c.47,6.23-5.25,40.58-5.25,40.58l4.73,3.77,4.59-40.88s-2.39-12.52-12.59-14.67Z" style="fill:#4057c9; fill-rule:evenodd; mix-blend-mode:multiply; opacity:.4;"/><polygon points="97.31 56.56 97.32 63.65 100.31 65.35 101.38 57.35 97.31 56.56" style="fill:#4057c9; fill-rule:evenodd; mix-blend-mode:multiply; opacity:.4;"/><polygon points="101.38 57.35 99.57 55.54 90.94 55.5 101.38 57.35" style="fill:url(#_횂횁_횕_횑횑_횊_횏횂횑횣_53-2); fill-rule:evenodd;"/><path d="M100.31,65.35h0s-.26,1.98-.26,1.98c-1.66,6.55-11.11,7.5-11.11,7.5H15.84c-9.46-1.58-11.53-7.5-11.53-7.5l4.46-4.35s4.29,6.68,11.14,9.26l62.42-1.16s10.92-1.14,14.99-7.43l2.99,1.7Z" style="fill:url(#_횂횁_횕_횑횑_횊_횏횂횑횣_80); fill-rule:evenodd;"/><path d="M4.3,67.33l5.55,4.04,10.86,3.46h-4.88s-8.24-.42-11.53-7.5Z" style="fill:#2781cd; fill-rule:evenodd;"/><path d="M62.59,74.83l21.44-2.61,6.91,1.31,4.46-1.31,4.91-6.87-.27,1.98s-.93,6.61-11.11,7.5h-26.34Z" style="fill:#2781cd; fill-rule:evenodd;"/><polygon points="21.6 4.78 34.4 6.28 64.01 4.31 39.69 3.99 21.6 4.78" style="fill:#76ffea; fill-rule:evenodd;"/><polygon points="93.41 4.01 99 6.28 102.13 6.78 99.09 3.99 93.41 4.01" style="fill:#76ffea; fill-rule:evenodd;"/><polygon points="94.5 0 99.09 3.99 87.53 3.99 85.88 .63 94.5 0" style="fill:#fcca70; fill-rule:evenodd; mix-blend-mode:soft-light;"/><polygon points="10.08 4.9 9.72 2.91 15.66 2.82 15.66 4.84 10.08 4.9" style="fill:#fcca70; fill-rule:evenodd; mix-blend-mode:soft-light;"/><polygon points=".76 25.69 6.03 23.85 27.36 25.69 .76 25.69" style="fill:url(#_횂횁_횕_횑횑_횊_횏횂횑횣_53-3); fill-rule:evenodd;"/><polygon points="57.22 2.82 62.4 4.29 62.4 6.78 60.63 4.48 57.22 2.82" style="fill:#2781cd; fill-rule:evenodd;"/><polygon points="27.36 25.69 33.06 25.69 48.98 26.84 34.48 26.84 27.36 25.69" style="fill:#2781cd; fill-rule:evenodd;"/><polygon points="3.13 53.52 9.72 48.82 14.06 46.51 3.13 53.52" style="fill:#2781cd; fill-rule:evenodd;"/><polygon points="61.13 69.09 65.57 70.09 65.57 69.09 61.13 69.09" style="fill:#2781cd; fill-rule:evenodd;"/><polygon points="104.43 39.51 99.12 38.99 95.77 41.62 99.12 40.2 104.43 39.51" style="fill:#2781cd; fill-rule:evenodd;"/><polygon points="95.77 41.62 103.77 39.6 99.12 40.2 95.77 41.62" style="fill:#76ffea; fill-rule:evenodd;"/><polygon points="58.39 3.39 62.4 6.78 60.63 4.48 58.39 3.39" style="fill:url(#_횂횁_횕_횑횑_횊_횏횂횑횣_53-4); fill-rule:evenodd;"/><polygon points="34.48 26.84 37.37 27.08 44.1 26.84 34.48 26.84" style="fill:url(#_횂횁_횕_횑횑_횊_횏횂횑횣_53-5); fill-rule:evenodd;"/><polygon points="90.94 55.5 81.45 54.82 57.22 57.35 90.94 55.5" style="fill:#2781cd; fill-rule:evenodd;"/><polygon points="61.13 57.14 73.42 56.94 82.33 55.98 61.13 57.14" style="fill:#76ffea; fill-rule:evenodd;"/><polygon points="4.83 25.69 8.59 26.84 12.69 25.69 4.83 25.69" style="fill:#76ffea; fill-rule:evenodd;"/><path d="M87.53,3.99l6.87,1.09,2.27,1.2,6.41,1.29,2.4,4.53.38,7.2.2,4.5,1.03-9.13s-1.26-5.83-4.96-7.89l-8.72-2.77h-5.88Z" style="fill:#76ffea; fill-rule:evenodd;"/><path d="M.56,23.37l.2-8.7,5.82-6.4,6.63-2.79,8.93-.73-12.06.15S-.14,7.21,0,16.76l.56,6.61Z" style="fill:#76ffea; fill-rule:evenodd;"/><polygon points="1.53 34.79 1.53 27.08 2.88 25.99 4.83 25.69 .76 25.69 1.53 34.79" style="fill:#2781cd; fill-rule:evenodd;"/><polygon points="94.82 11.66 95.9 10.36 99.95 11.66 98.87 13.76 96.19 13.76 94.82 11.66" style="fill:#2781cd; fill-rule:evenodd;"/><polygon points="11.35 41.15 11.86 40.64 14.03 41.7 12.64 42.59 11.35 41.62 11.35 41.15" style="fill:#2781cd; fill-rule:evenodd;"/><polygon points="94.82 11.66 96.18 13.34 98.42 13.59 98.95 13.59 98.87 13.76 96.19 13.92 94.82 11.66" style="fill:#76ffea; fill-rule:evenodd;"/><polygon points="99.21 22.24 98.96 21.26 100.18 20.35 101.66 21 100.72 22.31 99.21 22.24" style="fill:#2781cd; fill-rule:evenodd;"/><polygon points="99.21 22.24 100.51 22.17 101.42 21.16 101.61 20.9 101.66 21 100.8 22.37 99.21 22.24" style="fill:#76ffea; fill-rule:evenodd;"/><polygon points="11.35 41.62 12.27 42.17 13.19 42.17 14.03 41.7 12.92 42.59 12.64 42.59 11.35 41.62" style="fill:#76ffea; fill-rule:evenodd;"/><polygon points="52.78 8.81 64.34 8.54 99 6.28 13.59 52.97 52.78 8.81" style="fill:url(#_횂횁_횕_횑횑_횊_횏횂횑횣_78); fill-rule:evenodd; mix-blend-mode:screen; opacity:.5;"/><polygon points="13.59 52.97 63.49 65.74 37.75 62.82 13.59 52.97" style="fill:#76ffea; fill-rule:evenodd; mix-blend-mode:soft-light; opacity:.3;"/><polygon points="63.49 65.74 79.8 42.6 13.59 52.97 63.49 65.74" style="fill:#818dff; fill-rule:evenodd; mix-blend-mode:multiply; opacity:.2;"/></g></g></g></svg>