<?xml version="1.0" encoding="UTF-8"?><svg xmlns="http://www.w3.org/2000/svg" xmlns:xlink="http://www.w3.org/1999/xlink" viewBox="0 0 172.19 43.52"><defs><radialGradient id="_횂횁_횕_횑횑_횊_횏횂횑횣_62" cx="86.07" cy="23.16" fx="86.07" fy="23.16" r="62.54" gradientUnits="userSpaceOnUse"><stop offset="0" stop-color="#247eff"/><stop offset="1" stop-color="#04c0e8"/></radialGradient><radialGradient id="_횂횁_횕_횑횑_횊_횏횂횑횣_53" cx="85.89" cy="2.93" fx="85.89" fy="2.93" r="60.53" gradientUnits="userSpaceOnUse"><stop offset="0" stop-color="#68fffe"/><stop offset="1" stop-color="#24c7ff"/></radialGradient><radialGradient id="_횂횁_횕_횑횑_횊_횏횂횑횣_53-2" cx="11.16" cy="8.82" fx="11.16" fy="8.82" r="5.35" xlink:href="#_횂횁_횕_횑횑_횊_횏횂횑횣_53"/><radialGradient id="_횂횁_횕_횑횑_횊_횏횂횑횣_53-3" cx="162.15" cy="30.24" fx="162.15" fy="30.24" r="2.62" xlink:href="#_횂횁_횕_횑횑_횊_횏횂횑횣_53"/><radialGradient id="_횂횁_횕_횑횑_횊_횏횂횑횣_85" cx="86.4" cy="23.79" fx="86.4" fy="23.79" r="51.66" gradientUnits="userSpaceOnUse"><stop offset="0" stop-color="#247eff"/><stop offset="1" stop-color="#0497e8"/></radialGradient><radialGradient id="_횂횁_횕_횑횑_횊_횏횂횑횣_80" cx="84.9" cy="41.22" fx="84.9" fy="41.22" r="51.6" gradientUnits="userSpaceOnUse"><stop offset="0" stop-color="#68fffe"/><stop offset="1" stop-color="#24f2ff"/></radialGradient><linearGradient id="_횂횁_횕_횑횑_횊_횏횂횑횣_149" x1="15.47" y1="12.08" x2="157.09" y2="12.08" gradientUnits="userSpaceOnUse"><stop offset="0" stop-color="#c77cbd"/><stop offset="1" stop-color="#974577"/></linearGradient><radialGradient id="_횂횁_횕_횑횑_횊_횏횂횑횣_53-4" cx="168.88" cy="10.05" fx="168.88" fy="10.05" r="2.27" xlink:href="#_횂횁_횕_횑횑_횊_횏횂횑횣_53"/><linearGradient id="_횂횁_횕_횑횑_횊_횏횂횑횣_77" x1="74.53" y1="33.35" x2="74.53" y2="12.53" gradientUnits="userSpaceOnUse"><stop offset="0" stop-color="#000"/><stop offset="1" stop-color="#4590c2"/></linearGradient></defs><g style="isolation:isolate;"><g id="Layer_2"><g id="game"><path d="M168.98,28.42l-10.42,2.51,7.2.22c-3.52,7.75-7.91,12.37-7.91,12.37l-145.89-1.15C4.19,34.03,3.46,18.93,3.77,10.41l14.78-2.48L0,6.64c.16-2.39.34-3.84.34-3.84,71.41,5.48,171.09,1.3,171.09,1.3,1.7,9.43.06,17.77-2.46,24.33Z" style="fill:url(#_횂횁_횕_횑횑_횊_횏횂횑횣_62); fill-rule:evenodd;"/><path d="M8.34,7.22s.42,23.25,11.47,31.71l-7.86,3.44S2.06,33.68,3.77,10.41l4.57-3.19Z" style="fill:#4057c9; fill-rule:evenodd; mix-blend-mode:multiply; opacity:.4;"/><polygon points="5.76 0 5.24 4.71 0 6.64 .34 2.79 5.76 0" style="fill:#4057c9; fill-rule:evenodd; mix-blend-mode:multiply; opacity:.4;"/><path d="M162.98,1.34s4.6,9.29,1,25.49l5,1.59s5.09-13.06,2.46-24.33l-8.46-2.75Z" style="fill:#4057c9; fill-rule:evenodd; mix-blend-mode:multiply; opacity:.4;"/><path d="M165.18,29.33s-5.29,7.86-11.48,12.2l4.15,1.98s4.85-4.45,7.91-12.37l-.57-1.82Z" style="fill:#4057c9; fill-rule:evenodd; mix-blend-mode:multiply; opacity:.4;"/><path d="M.34,2.79L5.76,0s70.97,2.74,157.21,1.34l8.46,2.75S42.72,8.85.34,2.79Z" style="fill:url(#_횂횁_횕_횑횑_횊_횏횂횑횣_53); fill-rule:evenodd;"/><polygon points="3.77 10.41 8.34 7.22 18.55 7.93 3.77 10.41" style="fill:url(#_횂횁_횕_횑횑_횊_횏횂횑횣_53-2); fill-rule:evenodd;"/><polygon points="165.75 31.15 165.18 29.33 158.56 30.93 165.75 31.15" style="fill:url(#_횂횁_횕_횑횑_횊_횏횂횑횣_53-3); fill-rule:evenodd;"/><polygon points="11.76 4.02 40.38 4.02 96.11 5.77 52.67 7.22 11.76 4.02" style="fill:#76ffea; fill-rule:evenodd;"/><path d="M15.47,11.23s-3.61,7.88,2.58,23.43l135.08,1.69s8.38-8.87,3.96-24.36l-141.62-.77Z" style="fill:url(#_횂횁_횕_횑횑_횊_횏횂횑횣_85); fill-rule:evenodd;"/><polygon points="18.05 34.65 19.39 33.36 79.57 34 152.1 34 153.12 36.35 18.05 34.65" style="fill:#76ffea; fill-rule:evenodd;"/><path d="M157.09,11.99l-1.72.95s3.56,10.51-3.81,21.94l1.56,1.47s9.03-12.18,3.96-24.36Z" style="fill:#2781cd; fill-rule:evenodd;"/><path d="M17.42,11.23s-2.92,11.93,1.97,22.13l-1.35,1.3s-6.7-13.55-2.58-23.43h1.95Z" style="fill:#2781cd; fill-rule:evenodd;"/><polygon points="157.84 43.52 151.56 40.51 19.82 38.93 11.95 42.37 157.84 43.52" style="fill:url(#_횂횁_횕_횑횑_횊_횏횂횑횣_80); fill-rule:evenodd;"/><path d="M15.47,11.23l1.62,1.71s117.04-.92,138.27,0l1.72-.95-141.62-.77Z" style="fill:url(#_횂횁_횕_횑횑_횊_횏횂횑횣_149); fill-rule:evenodd; mix-blend-mode:multiply; opacity:.6;"/><polygon points="171.44 4.09 162.98 1.34 150.54 1.52 160.99 2.72 163.42 3.45 162.15 4.43 171.44 4.09" style="fill:#fcca70; fill-rule:evenodd; mix-blend-mode:soft-light;"/><polygon points=".34 2.79 11.76 4.02 6.05 2.2 6.05 1.5 9.99 .15 5.76 0 .34 2.79" style="fill:#fcca70; fill-rule:evenodd; mix-blend-mode:soft-light;"/><polygon points="110.18 5.52 115.66 7.22 114.56 5.87 111.22 4.02 110.18 5.52" style="fill:#2781cd; fill-rule:evenodd;"/><polygon points="162.15 37.77 124.73 43.26 151.56 40.51 162.15 37.77" style="fill:#76ffea; fill-rule:evenodd;"/><polygon points="11.95 42.37 51.67 41.22 100.14 43.06 11.95 42.37" style="fill:#2781cd; fill-rule:evenodd;"/><polygon points="9.43 38.93 11.16 32.46 8.67 37.77 9.43 38.93" style="fill:#2781cd; fill-rule:evenodd;"/><polygon points="172.01 8.59 162.85 11.23 172.01 9.32 172.01 8.59" style="fill:#2781cd; fill-rule:evenodd;"/><polygon points="165.75 10.62 167.43 10.78 172.01 9.32 165.75 10.62" style="fill:url(#_횂횁_횕_횑횑_횊_횏횂횑횣_53-4); fill-rule:evenodd;"/><polygon points="111.22 4.02 111.22 5 115.66 7.22 110.18 5.52 111.22 4.02" style="fill:#76ffea; fill-rule:evenodd;"/><polygon points="0 6.64 1.97 5.62 10.76 4.77 20.03 5.24 36.55 5.96 11.76 4.02 .34 2.79 0 6.64" style="fill:#76ffea; fill-rule:evenodd;"/><polygon points="118.15 5.48 133.39 6.64 149.57 4.92 166.77 4.92 172.01 8.59 171.44 4.09 118.15 5.48" style="fill:#76ffea; fill-rule:evenodd;"/><path d="M166.32,29.06l2.56-3.05,2.81-7.95s-.66,6.17-2.71,10.37l-2.65.64Z" style="fill:#76ffea; fill-rule:evenodd;"/><polygon points="10.28 40.33 21.53 42.45 11.95 42.37 10.28 40.33" style="fill:#2781cd; fill-rule:evenodd;"/><polygon points="76.79 12.6 42.11 33.35 106.96 12.53 76.79 12.6" style="fill:url(#_횂횁_횕_횑횑_횊_횏횂횑횣_77); fill-rule:evenodd; mix-blend-mode:screen; opacity:.5;"/><polygon points="100.78 33.16 106.96 12.53 147.78 33.35 100.78 33.16" style="fill:#818dff; fill-rule:evenodd; mix-blend-mode:multiply; opacity:.2;"/></g></g></g></svg>