<?xml version="1.0" encoding="UTF-8"?><svg xmlns="http://www.w3.org/2000/svg" xmlns:xlink="http://www.w3.org/1999/xlink" viewBox="0 0 78.5 61.91"><defs><radialGradient id="_횂횁_횕_횑횑_횊_횏횂횑횣_62" cx="41.1" cy="46.19" fx="41.1" fy="46.19" r="34.56" gradientUnits="userSpaceOnUse"><stop offset="0" stop-color="#247eff"/><stop offset="1" stop-color="#04c0e8"/></radialGradient><radialGradient id="_횂횁_횕_횑횑_횊_횏횂횑횣_53" cx="38.98" cy="3.39" fx="38.98" fy="3.39" r="27.67" gradientUnits="userSpaceOnUse"><stop offset="0" stop-color="#68fffe"/><stop offset="1" stop-color="#24c7ff"/></radialGradient><radialGradient id="_횂횁_횕_횑횑_횊_횏횂횑횣_53-2" cx="71.91" cy="39.96" fx="71.91" fy="39.96" r="2.18" xlink:href="#_횂횁_횕_횑횑_횊_횏횂횑횣_53"/><radialGradient id="_횂횁_횕_횑횑_횊_횏횂횑횣_53-3" cx="8.58" cy="11.13" fx="8.58" fy="11.13" r="5.77" xlink:href="#_횂횁_횕_횑횑_횊_횏횂횑횣_53"/><radialGradient id="_횂횁_횕_횑횑_횊_횏횂횑횣_53-4" cx="35.43" cy="11.3" fx="35.43" fy="11.3" r="5.06" xlink:href="#_횂횁_횕_횑횑_횊_횏횂횑횣_53"/><radialGradient id="_횂횁_횕_횑횑_횊_횏횂횑횣_80" cx="38.7" cy="59.27" fx="38.7" fy="59.27" r="25.06" gradientUnits="userSpaceOnUse"><stop offset="0" stop-color="#68fffe"/><stop offset="1" stop-color="#24f2ff"/></radialGradient><linearGradient id="_횂횁_횕_횑횑_횊_횏횂횑횣_77" x1="21.13" y1="51.2" x2="21.13" y2="8.51" gradientUnits="userSpaceOnUse"><stop offset="0" stop-color="#000"/><stop offset="1" stop-color="#4590c2"/></linearGradient></defs><g style="isolation:isolate;"><g id="Layer_2"><g id="game"><path d="M75.45,37.76l-6.47,3.12h5.87c-2.25,11.25-4.73,19.71-4.73,19.71H8.79C3.93,41.13,1.51,21.8.54,12.5l16.08-1.37L.21,9.21c-.14-1.57-.21-2.43-.21-2.43C23.49,3.24,77.96,2.23,77.96,2.23c1.29,10.5-.38,24.1-2.51,35.53Z" style="fill:url(#_횂횁_횕_횑횑_횊_횏횂횑횣_62); fill-rule:evenodd;"/><path d="M12.24,57.18S4.47,22.57,4.87,9.76L.54,12.5s3.28,30.64,8.25,48.09l3.45-3.41Z" style="fill:#4057c9; fill-rule:evenodd; mix-blend-mode:multiply; opacity:.4;"/><path d="M76.12.15s-.62,23.66-2.89,36.25l2.22,1.36s4.6-19.13,2.51-35.53l-1.84-2.08Z" style="fill:#4057c9; fill-rule:evenodd; mix-blend-mode:multiply; opacity:.4;"/><polygon points="65.33 56.52 71.91 39.03 74.85 40.88 70.12 60.59 65.33 56.52" style="fill:#4057c9; fill-rule:evenodd; mix-blend-mode:multiply; opacity:.4;"/><path d="M0,6.78l5.95-2.53S38.01-.92,76.12.15l1.84,2.08S33.51,3.42,0,6.78Z" style="fill:url(#_횂횁_횕_횑횑_횊_횏횂횑횣_53); fill-rule:evenodd;"/><path d="M8.79,60.59l4.42,1.33s40.28-2.21,53.9,0l3.01-1.33H8.79Z" style="fill:#2781cd; fill-rule:evenodd;"/><polygon points="74.85 40.88 72.82 39.03 68.98 40.88 74.85 40.88" style="fill:url(#_횂횁_횕_횑횑_횊_횏횂횑횣_53-2); fill-rule:evenodd;"/><polygon points=".54 12.5 4.87 9.76 16.62 11.13 .54 12.5" style="fill:url(#_횂횁_횕_횑횑_횊_횏횂횑횣_53-3); fill-rule:evenodd;"/><polygon points="16.62 11.13 30.08 9.76 74.85 11.13 16.62 11.13" style="fill:#76ffea; fill-rule:evenodd;"/><polygon points="68.98 40.88 49.53 43.79 34.37 46.82 47.89 44.92 68.98 40.88" style="fill:#76ffea; fill-rule:evenodd;"/><polygon points="45.73 60.59 52.31 57.18 48.58 60.93 45.73 60.59" style="fill:#2781cd; fill-rule:evenodd;"/><polygon points="28.28 11.13 35.81 11.47 42.58 11.13 28.28 11.13" style="fill:url(#_횂횁_횕_횑횑_횊_횏횂횑횣_53-4); fill-rule:evenodd;"/><polygon points="12.24 5.68 27.91 6.78 57.68 2.97 29.19 2.97 12.24 5.68" style="fill:#76ffea; fill-rule:evenodd;"/><path d="M.21,9.21l1.89-2.18,9.79-1.01,11.87.76,4.15.84,29.77-2.74,17.17-1.5,2.37.75,1.15,3.6s-.17-4.26-.41-5.49l-21.3.74-29.05,3.81-15.37-1.1L0,6.78l.21,2.43Z" style="fill:#76ffea; fill-rule:evenodd;"/><path d="M.54,12.5l2.35,8.77v8.15l3.54,20.87S.94,27.98.54,12.5Z" style="fill:#2781cd; fill-rule:evenodd;"/><path d="M78.37,7.72l-1.68,10.59v9.18l-1.24,10.27s2.01-8.88,2.66-15.76.26-14.27.26-14.27Z" style="fill:#2781cd; fill-rule:evenodd;"/><polygon points="6.43 50.29 34.37 46.82 13.28 50.86 11.45 50.29 6.43 50.29" style="fill:#2781cd; fill-rule:evenodd;"/><polygon points="13.28 50.86 19.21 50.29 31.34 47.4 13.28 50.86" style="fill:#76ffea; fill-rule:evenodd;"/><polygon points="68.98 23.28 70.54 22.74 72.27 23.01 71.19 23.91 68.98 23.28" style="fill:#2781cd; fill-rule:evenodd;"/><polygon points="9.74 15.5 10.83 14.2 14.88 15.5 13.79 17.6 11.12 17.6 9.74 15.5" style="fill:#2781cd; fill-rule:evenodd;"/><polygon points="20.23 18.9 20.74 18.39 22.91 19.45 21.52 20.35 20.23 19.37 20.23 18.9" style="fill:#2781cd; fill-rule:evenodd;"/><polygon points="9.74 15.5 11.1 17.18 13.34 17.43 13.88 17.43 13.79 17.6 11.12 17.76 9.74 15.5" style="fill:#76ffea; fill-rule:evenodd;"/><polygon points="20.23 19.37 21.15 19.92 22.06 19.92 22.91 19.45 21.8 20.35 21.52 20.35 20.23 19.37" style="fill:#76ffea; fill-rule:evenodd;"/><polygon points="68.98 23.28 70.32 23.91 71.74 24.1 72.27 23.01 71.36 23.56 68.98 23.28" style="fill:#76ffea; fill-rule:evenodd;"/><polygon points="59.19 59.06 65.33 53.99 62.26 57.6 59.19 59.06" style="fill:#2781cd; fill-rule:evenodd;"/><polygon points="60.74 60.11 62.26 59.06 65.71 58.69 60.74 60.11" style="fill:#2781cd; fill-rule:evenodd;"/><polygon points="8.79 60.59 12.24 57.18 65.33 56.52 70.12 60.59 8.79 60.59" style="fill:url(#_횂횁_횕_횑횑_횊_횏횂횑횣_80); fill-rule:evenodd;"/><polygon points="25.52 8.51 11.44 51.2 30.82 35.85 25.52 8.51" style="fill:url(#_횂횁_횕_횑횑_횊_횏횂횑횣_77); fill-rule:evenodd; mix-blend-mode:screen; opacity:.5;"/><polygon points="23.04 56.9 30.82 35.85 67.48 57.08 23.04 56.9" style="fill:#818dff; fill-rule:evenodd; mix-blend-mode:multiply; opacity:.2;"/><polygon points="30.82 35.85 43.99 6.33 74.85 3.37 30.82 35.85" style="fill:#818dff; fill-rule:evenodd; mix-blend-mode:multiply; opacity:.2;"/></g></g></g></svg>