<?xml version="1.0" encoding="UTF-8"?><svg xmlns="http://www.w3.org/2000/svg" xmlns:xlink="http://www.w3.org/1999/xlink" viewBox="0 0 224.66 169.76"><defs><radialGradient id="_횂횁_횕_횑횑_횊_횏횂횑횣_62" cx="117.38" cy="126.85" fx="117.38" fy="126.85" r="98.26" gradientUnits="userSpaceOnUse"><stop offset="0" stop-color="#247eff"/><stop offset="1" stop-color="#04c0e8"/></radialGradient><radialGradient id="_횂횁_횕_횑횑_횊_횏횂횑횣_53" cx="110.66" cy="9.55" fx="110.66" fy="9.55" r="78.54" gradientUnits="userSpaceOnUse"><stop offset="0" stop-color="#68fffe"/><stop offset="1" stop-color="#24c7ff"/></radialGradient><radialGradient id="_횂횁_횕_횑횑_횊_횏횂횑횣_80" cx="110.05" cy="165.99" fx="110.05" fy="165.99" r="64.36" gradientUnits="userSpaceOnUse"><stop offset="0" stop-color="#68fffe"/><stop offset="1" stop-color="#24f2ff"/></radialGradient><linearGradient id="_횂횁_횕_횑횑_횊_횏횂횑횣_149" x1="63.7" y1="165.96" x2="122.99" y2="165.96" gradientUnits="userSpaceOnUse"><stop offset="0" stop-color="#c77cbd"/><stop offset="1" stop-color="#974577"/></linearGradient><linearGradient id="_횂횁_횕_횑횑_횊_횏횂횑횣_77" x1="155.61" y1="82.03" x2="155.61" y2="14.31" gradientUnits="userSpaceOnUse"><stop offset="0" stop-color="#000"/><stop offset="1" stop-color="#4590c2"/></linearGradient><linearGradient id="_횂횁_횕_횑횑_횊_횏횂횑횣_59" x1="9.31" y1="103.32" x2="130.39" y2="103.32" gradientUnits="userSpaceOnUse"><stop offset="0" stop-color="#ab4577"/><stop offset="1" stop-color="#fff"/></linearGradient><linearGradient id="_횂횁_횕_횑횑_횊_횏횂횑횣_77-2" x1="15.92" y1="145.12" x2="94.32" y2="145.12" xlink:href="#_횂횁_횕_횑횑_횊_횏횂횑횣_77"/></defs><g style="isolation:isolate;"><g id="Layer_2"><g id="game"><path d="M0,19.11v5.21l7.51,29.04-1.51,1.09,9.92,31.64h22.32l-28.93,2.72s3.91,18.25,6.61,44.96c1.71,16.9,3.18,32.83,3.18,32.83l181.89,3.16s3.24-37.22,7.94-47.51l-51.25-2.2,43.82-1.47,23.15-109.02-3.34-3.43-118.91,12.49-30.73-2.94L0,19.11Z" style="fill:url(#_횂횁_횕_횑횑_횊_횏횂횑횣_62); fill-rule:evenodd;"/><polygon points="212.1 0 214.59 7.84 204.88 79.12 197.17 114.72 202.06 114.72 209.89 79.12 224.66 9.55 212.1 0" style="fill:#4057c9; fill-rule:evenodd; mix-blend-mode:multiply; opacity:.4;"/><polygon points="9.31 12.25 14 53.21 12.9 54.78 20.37 83.79 15.92 86.09 6 54.45 7.51 53.36 0 24.32 0 19.11 9.31 12.25" style="fill:#4057c9; fill-rule:evenodd; mix-blend-mode:multiply; opacity:.4;"/><polygon points="0 19.11 9.31 12.25 71.69 12.25 114.58 9.8 212.1 0 221.32 6.12 102.42 18.62 71.69 15.68 0 19.11" style="fill:url(#_횂횁_횕_횑횑_횊_횏횂횑횣_53); fill-rule:evenodd;"/><polygon points="208.94 122.25 202.06 114.72 201.51 118.58 157.68 120.05 208.94 122.25" style="fill:#76ffea; fill-rule:evenodd;"/><polygon points="201 169.76 193.72 165.57 97.26 162.22 40.14 163.9 24.1 162.22 19.11 166.6 201 169.76" style="fill:url(#_횂횁_횕_횑횑_횊_횏횂횑횣_80); fill-rule:evenodd;"/><polygon points="9.31 88.81 24.25 86.09 49.86 86.09 9.31 88.81" style="fill:#76ffea; fill-rule:evenodd;"/><polygon points="71.69 15.68 130.39 15.68 101.04 20.82 71.69 15.68" style="fill:#76ffea; fill-rule:evenodd;"/><polygon points="130.39 168.53 63.7 163.9 39.44 166.95 130.39 168.53" style="fill:#2781cd; fill-rule:evenodd;"/><polygon points="155.33 120.54 133.61 123.08 94.32 123.65 155.33 120.54" style="fill:#76ffea; fill-rule:evenodd;"/><polygon points="6.6 49.55 21.99 57.17 7.51 53.36 6.6 49.55" style="fill:#2781cd; fill-rule:evenodd;"/><polygon points="49.86 86.09 210.19 77.7 209.89 79.12 49.86 86.09" style="fill:#76ffea; fill-rule:evenodd;"/><polygon points="0 24.32 22.72 18.02 0 19.11 0 24.32" style="fill:#76ffea; fill-rule:evenodd;"/><polygon points="224.66 9.55 192.67 9.55 221.32 6.12 224.66 9.55" style="fill:#76ffea; fill-rule:evenodd;"/><path d="M0,24.32l22.72-6.29,48.96-2.34,29.35,5.14-33.48-2.8S25.23,16.41,0,24.32Z" style="fill:#76ffea; fill-rule:evenodd;"/><polygon points="112.33 18.85 194.28 12 221.32 13.72 219.42 30.84 207.96 32.14 219.87 32.14 224.66 9.55 191.13 9.3 129.61 15.82 112.33 18.85" style="fill:#76ffea; fill-rule:evenodd;"/><polygon points="15.92 133.77 94.32 123.65 144.18 120.54 157.68 120.05 94.32 124.46 51.11 130.94 15.92 133.77" style="fill:#76ffea; fill-rule:evenodd;"/><polygon points="122.99 168.02 63.7 163.9 73.01 167.53 122.99 168.02" style="fill:url(#_횂횁_횕_횑횑_횊_횏횂횑횣_149); fill-rule:evenodd; mix-blend-mode:multiply; opacity:.6;"/><polygon points="86.75 84.48 100.17 86.09 119.19 83.07 86.75 84.48" style="fill:#76ffea; fill-rule:evenodd;"/><polygon points="86.75 84.48 98.11 84.58 119.19 83.07 102.11 81.4 86.75 84.48" style="fill:#2781cd; fill-rule:evenodd;"/><polygon points="167.96 81.14 177.38 85.38 169.17 80.73 167.96 81.14" style="fill:#2781cd; fill-rule:evenodd;"/><polygon points="217.84 41.68 204.88 51.51 216.79 46.59 217.84 41.68" style="fill:#2781cd; fill-rule:evenodd;"/><polygon points="51.03 129.23 61.49 123.65 53.57 128.91 51.03 129.23" style="fill:#2781cd; fill-rule:evenodd;"/><polygon points="139.77 159.55 146.87 154.9 160.53 154.41 146.94 156.18 139.77 159.55" style="fill:#2781cd; fill-rule:evenodd;"/><polygon points="74.6 118.49 77.42 116.86 84.86 116.86 74.6 118.49" style="fill:#2781cd; fill-rule:evenodd;"/><polygon points="159 5.34 171.85 11.34 178.36 20.82 184.97 26.46 174.22 19.11 162 11.82 159 5.34" style="fill:#76ffea; fill-rule:evenodd;"/><polygon points="184.97 26.46 175.6 19.11 161.17 10.03 159 5.34 171.85 11.34 177.38 19.4 184.97 26.46" style="fill:#2781cd; fill-rule:evenodd;"/><polygon points="44.77 16.97 53.04 12.25 30.44 12.25 14.3 18.43 44.77 16.97" style="fill:#fcca70; fill-rule:evenodd; mix-blend-mode:soft-light;"/><polygon points="84.86 15.68 88.7 11.28 106.51 10.26 108.73 15.9 84.86 15.68" style="fill:#fcca70; fill-rule:evenodd; mix-blend-mode:soft-light;"/><polygon points="141.48 158.75 158.49 154.68 146.94 156.18 141.48 158.75" style="fill:#76ffea; fill-rule:evenodd;"/><polygon points="74.6 118.49 79.73 119.19 84.86 116.86 74.6 118.49" style="fill:#76ffea; fill-rule:evenodd;"/><polygon points="53.57 128.91 61.49 123.65 55.65 128.64 53.57 128.91" style="fill:#76ffea; fill-rule:evenodd;"/><polygon points="167.55 80.96 173.84 83.79 165.13 81.09 167.55 80.96" style="fill:#76ffea; fill-rule:evenodd;"/><polygon points="206.2 50.97 216.47 48.11 216.79 46.59 206.2 50.97" style="fill:#76ffea; fill-rule:evenodd;"/><polygon points="171.43 17.45 173.84 20 177.38 21.27 171.43 17.45" style="fill:#76ffea; fill-rule:evenodd;"/><polygon points="7.51 53.36 6 54.45 21.99 57.17 7.51 53.36" style="fill:#76ffea; fill-rule:evenodd;"/><polygon points="26.83 112.09 29.58 111.11 36.87 111.11 26.83 112.09" style="fill:#2781cd; fill-rule:evenodd;"/><polygon points="26.83 140.08 30.81 139 32.34 139 28.17 140.08 26.83 140.08" style="fill:#2781cd; fill-rule:evenodd;"/><polygon points="185.09 105.13 187.18 103.91 188.28 103.91 187.18 105.5 185.09 105.13" style="fill:#2781cd; fill-rule:evenodd;"/><polygon points="21.9 140.91 24.1 141.73 22.54 141.73 21.9 140.91" style="fill:#2781cd; fill-rule:evenodd;"/><polygon points="186.21 105.33 187.52 105.01 187.18 105.5 186.21 105.33" style="fill:#76ffea; fill-rule:evenodd;"/><polygon points="12.9 32.73 14.41 32.22 16.09 32.47 15.04 33.35 12.9 32.73" style="fill:#2781cd; fill-rule:evenodd;"/><polygon points="44.56 28.95 45.61 27.68 49.54 28.95 48.49 30.98 45.9 30.98 44.56 28.95" style="fill:#2781cd; fill-rule:evenodd;"/><polygon points="54.73 32.24 55.22 31.75 57.33 32.78 55.98 33.65 54.73 32.7 54.73 32.24" style="fill:#2781cd; fill-rule:evenodd;"/><polygon points="44.56 28.95 45.88 30.58 48.05 30.82 48.57 30.82 48.49 30.98 45.9 31.14 44.56 28.95" style="fill:#76ffea; fill-rule:evenodd;"/><polygon points="54.73 32.7 55.62 33.24 56.51 33.24 57.33 32.78 56.25 33.65 55.98 33.65 54.73 32.7" style="fill:#76ffea; fill-rule:evenodd;"/><polygon points="12.9 32.73 14.21 33.35 15.57 33.53 16.09 32.47 15.21 33 12.9 32.73" style="fill:#76ffea; fill-rule:evenodd;"/><path d="M9.31,88.81l3.59,10.61,8.99,2.62-8.77.28,1.37,9.28,1.43,22.17s-4.04-32.58-6.61-44.96Z" style="fill:#76ffea; fill-rule:evenodd;"/><polygon points="209.89 79.12 200.78 115.36 181.79 119.19 201.51 118.58 209.89 79.12" style="fill:#76ffea; fill-rule:evenodd;"/><path d="M201,169.76v-20.23l6.34-22.62,1.6-4.65s-3.23,13.96-5.21,24.62c-1.98,10.66-2.73,22.88-2.73,22.88Z" style="fill:#2781cd; fill-rule:evenodd;"/><polygon points="201 149.53 191.29 152.43 201.81 150.55 201 149.53" style="fill:#2781cd; fill-rule:evenodd;"/><polygon points="15.92 133.77 19.14 153.47 19.11 166.6 15.92 133.77" style="fill:#76ffea; fill-rule:evenodd;"/><polygon points="44.77 16.97 51.45 24.32 47.05 16.86 44.77 16.97" style="fill:#76ffea; fill-rule:evenodd;"/><polygon points="45.73 18.02 46.57 20.59 51.45 24.32 45.73 18.02" style="fill:#76ffea; fill-rule:evenodd;"/><polygon points="12.54 75.28 32.95 75.28 110.66 75.65 39.81 77.7 12.54 75.28" style="fill:#76ffea; fill-rule:evenodd;"/><polygon points="12.54 75.28 39.81 76.49 110.66 75.65 12.54 75.28" style="fill:#2781cd; fill-rule:evenodd;"/><polygon points="11.25 99.89 12.9 99.42 21.39 101.89 12.98 100.11 11.25 99.89" style="fill:#2781cd; fill-rule:evenodd;"/><polygon points="24.74 12.25 10.96 13.35 7.23 14.94 5.44 17.39 20.27 18.02 20.7 18.12 0 19.11 9.31 12.25 24.74 12.25" style="fill:#fcca70; fill-rule:evenodd; mix-blend-mode:soft-light;"/><polygon points="197.17 1.5 209.9 1.1 216.02 3.8 217.98 5.34 206.47 7.69 221.32 6.12 212.1 0 197.17 1.5" style="fill:#fcca70; fill-rule:evenodd; mix-blend-mode:soft-light;"/><polygon points="101.04 20.82 127.42 82.03 210.19 77.7 166.66 14.31 112.33 18.85 101.04 20.82" style="fill:url(#_횂횁_횕_횑횑_횊_횏횂횑횣_77); fill-rule:evenodd; mix-blend-mode:screen; opacity:.5;"/><polygon points="94.32 83.07 101.04 20.82 127.42 82.03 94.32 83.07" style="fill:#818dff; fill-rule:evenodd; mix-blend-mode:multiply; opacity:.2;"/><polygon points="98.61 43.3 15.92 86.09 38.24 86.09 86.75 84.48 94.32 83.07 98.61 43.3" style="fill:#76ffea; fill-rule:evenodd; mix-blend-mode:soft-light; opacity:.3;"/><polygon points="98.61 43.3 50.52 18.02 70.3 18.25 101.04 20.82 98.61 43.3" style="fill:#76ffea; fill-rule:evenodd; mix-blend-mode:soft-light; opacity:.3;"/><polygon points="9.31 88.81 94.32 123.65 108.73 122.25 130.39 82.99 9.31 88.81" style="fill:url(#_횂횁_횕_횑횑_횊_횏횂횑횣_59); fill-rule:evenodd; mix-blend-mode:multiply; opacity:.2;"/><polygon points="57.27 140.08 137.24 168.65 63.7 163.9 57.27 140.08" style="fill:#76ffea; fill-rule:evenodd; mix-blend-mode:soft-light; opacity:.3;"/><polygon points="57.27 140.08 19.11 166.6 39.44 166.95 63.7 163.9 57.27 140.08" style="fill:#818dff; fill-rule:evenodd; mix-blend-mode:multiply; opacity:.2;"/><polygon points="57.27 140.08 94.32 123.65 15.92 133.77 19.11 166.6 57.27 140.08" style="fill:url(#_횂횁_횕_횑횑_횊_횏횂횑횣_77-2); fill-rule:evenodd; mix-blend-mode:screen; opacity:.5;"/><polygon points="201 169.76 193.72 165.57 193.72 146.01 200.78 115.36 208.94 122.25 201 149.53 201 169.76" style="fill:#4057c9; fill-rule:evenodd; mix-blend-mode:multiply; opacity:.4;"/><polygon points="9.31 88.81 15.6 87.94 21.39 133.77 24.1 162.22 19.11 166.6 15.92 133.77 9.31 88.81" style="fill:#4057c9; fill-rule:evenodd; mix-blend-mode:multiply; opacity:.4;"/></g></g></g></svg>