<?xml version="1.0" encoding="UTF-8"?><svg xmlns="http://www.w3.org/2000/svg" xmlns:xlink="http://www.w3.org/1999/xlink" viewBox="0 0 86.22 66.41"><defs><radialGradient id="_횂횁_횕_횑횑_횊_횏횂횑횣_62" cx="43.11" cy="35.42" fx="43.11" fy="35.42" r="37.54" gradientUnits="userSpaceOnUse"><stop offset="0" stop-color="#247eff"/><stop offset="1" stop-color="#04c0e8"/></radialGradient><radialGradient id="_횂횁_횕_횑횑_횊_횏횂횑횣_53" cx="44.51" cy="2.74" fx="44.51" fy="2.74" r="24.92" gradientUnits="userSpaceOnUse"><stop offset="0" stop-color="#68fffe"/><stop offset="1" stop-color="#24c7ff"/></radialGradient><radialGradient id="_횂횁_횕_횑횑_횊_횏횂횑횣_53-2" cx="78.75" cy="38.65" fx="78.75" fy="38.65" r="2.25" xlink:href="#_횂횁_횕_횑횑_횊_횏횂횑횣_53"/><radialGradient id="_횂횁_횕_횑횑_횊_횏횂횑횣_53-3" cx="9.25" cy="52.84" fx="9.25" fy="52.84" r="2.76" xlink:href="#_횂횁_횕_횑횑_횊_횏횂횑횣_53"/><linearGradient id="_횂횁_횕_횑횑_횊_횏횂횑횣_149" x1="6.88" y1="13.27" x2="77.72" y2="13.27" gradientUnits="userSpaceOnUse"><stop offset="0" stop-color="#c77cbd"/><stop offset="1" stop-color="#974577"/></linearGradient></defs><g style="isolation:isolate;"><g id="Layer_2"><g id="game"><path d="M86.21,13.01l-4.07,22.67h0s-4.41,3.8-4.41,3.8h3.73l-3.73,20.77-6.06,6.16c-12.51-1.3-59.66,0-59.66,0l-5.13-5.8-1.23-8.54,5.23,1.41-5.45-2.93L0,12.85l9.36-7.38c50.45-2.34,70.29,0,70.29,0l6.56,7.54Z" style="fill:url(#_횂횁_횕_횑횑_횊_횏횂횑횣_62); fill-rule:evenodd;"/><path d="M79.65,5.47l-4.55-5.21S33.41-.87,12,1.59l-2.64,3.88s50.2-1.61,70.29,0Z" style="fill:url(#_횂횁_횕_횑횑_횊_횏횂횑횣_53); fill-rule:evenodd;"/><polygon points="75.1 .26 86.22 13.01 78.51 6.64 75.1 .26" style="fill:#76ffea; fill-rule:evenodd;"/><polygon points="12 1.59 10.02 6.04 0 12.85 12 1.59" style="fill:#76ffea; fill-rule:evenodd;"/><polygon points="6.88 60.62 18.84 66.24 12 66.41 6.88 60.62" style="fill:#2781cd; fill-rule:evenodd;"/><polygon points="77.72 60.25 66.45 66.07 71.66 66.41 77.72 60.25" style="fill:#2781cd; fill-rule:evenodd;"/><polygon points="81.45 39.48 80.66 36.96 76.05 40.34 81.45 39.48" style="fill:url(#_횂횁_횕_횑횑_횊_횏횂횑횣_53-2); fill-rule:evenodd;"/><polygon points="5.64 52.07 6.88 51.33 12.86 54.36 5.64 52.07" style="fill:url(#_횂횁_횕_횑횑_횊_횏횂횑횣_53-3); fill-rule:evenodd;"/><polygon points="12.86 54.36 26.5 61.82 42.42 65.87 26.12 60.62 12.86 54.36" style="fill:#76ffea; fill-rule:evenodd;"/><polygon points="29.34 4.83 52.37 6.64 77.8 5.3 51.74 3.55 29.34 4.83" style="fill:#76ffea; fill-rule:evenodd;"/><polygon points="2.41 29.59 1.21 13.9 6.88 8.18 14.6 7.22 27.64 5.09 10.44 5.09 0 12.85 2.41 29.59" style="fill:#76ffea; fill-rule:evenodd;"/><polygon points="67.13 5.86 75.1 6.64 78.75 7.94 84.77 14 84.01 25.31 86.22 13.01 77.8 5.3 67.13 5.86" style="fill:#76ffea; fill-rule:evenodd;"/><polygon points="84.64 21.77 70.37 24.49 64.3 27.68 84.64 21.77" style="fill:#76ffea; fill-rule:evenodd;"/><polygon points="68.49 26.46 73.84 25.53 79.19 23.36 68.49 26.46" style="fill:#76ffea; fill-rule:evenodd;"/><path d="M6.88,16.54l2.49,25.55,3.49,17.32,27.1,2.4,30.41-2.4,6.31-25.86,1.05-17.36S51.68.35,6.88,16.54Z" style="fill:#97acd7; fill-rule:evenodd; mix-blend-mode:multiply; opacity:.7;"/><polygon points="70.37 59.42 68.59 57.85 41.09 60.11 13.82 59.14 12.86 59.42 39.95 61.82 70.37 59.42" style="fill:#76ffea; fill-rule:evenodd;"/><path d="M6.88,16.54l3.96.8s28.26-15.75,65.3,0l1.59-1.15S52.33.22,6.88,16.54Z" style="fill:url(#_횂횁_횕_횑횑_횊_횏횂횑횣_149); fill-rule:evenodd; mix-blend-mode:multiply; opacity:.6;"/><polygon points="76.14 17.34 68.49 58.36 70.37 59.42 76.67 34.18 77.72 16.2 76.14 17.34" style="fill:#2781cd; fill-rule:evenodd;"/><polygon points="6.88 16.54 10.84 17.34 13.82 59.14 12.86 59.42 9.37 42.1 6.88 16.54" style="fill:#2781cd; fill-rule:evenodd;"/><polygon points="12 1.59 22.75 .71 15.47 2.04 14.25 2.96 19.3 4.75 23.9 5.1 10.44 5.09 12 1.59" style="fill:#fcca70; fill-rule:evenodd; mix-blend-mode:soft-light;"/><polygon points="57.7 .01 65.59 .71 72.09 2.04 73.11 3.55 65.4 4.46 77.8 5.3 75.1 .26 57.7 .01" style="fill:#fcca70; fill-rule:evenodd; mix-blend-mode:soft-light;"/><polygon points="15.86 44.13 25.65 28.49 68.84 23.2 15.86 44.13" style="fill:#76ffea; fill-rule:evenodd; mix-blend-mode:soft-light; opacity:.3;"/><polygon points="67.77 46.31 43.11 49.07 15.86 44.13 67.77 46.31" style="fill:#acabff; fill-rule:evenodd; mix-blend-mode:multiply; opacity:.2;"/><polygon points="25.65 28.49 23.9 12.01 10.84 17.34 14.7 44.07 15.86 44.13 25.65 28.49" style="fill:#acabff; fill-rule:evenodd; mix-blend-mode:multiply; opacity:.2;"/></g></g></g></svg>