<?xml version="1.0" encoding="UTF-8"?><svg xmlns="http://www.w3.org/2000/svg" xmlns:xlink="http://www.w3.org/1999/xlink" viewBox="0 0 115.29 54.9"><defs><radialGradient id="_횂횁_횕_횑횑_횊_횏횂횑횣_62" cx="57.14" cy="36.3" fx="57.14" fy="36.3" r="44.92" gradientUnits="userSpaceOnUse"><stop offset="0" stop-color="#247eff"/><stop offset="1" stop-color="#04c0e8"/></radialGradient><radialGradient id="_횂횁_횕_횑횑_횊_횏횂횑횣_53" cx="44.65" cy="5.85" fx="44.65" fy="5.85" r="31.84" gradientUnits="userSpaceOnUse"><stop offset="0" stop-color="#68fffe"/><stop offset="1" stop-color="#24c7ff"/></radialGradient><radialGradient id="_횂횁_횕_횑횑_횊_횏횂횑횣_80" cx="58.75" cy="42.21" fx="58.75" fy="42.21" r="40.98" gradientUnits="userSpaceOnUse"><stop offset="0" stop-color="#68fffe"/><stop offset="1" stop-color="#24f2ff"/></radialGradient><radialGradient id="_횂횁_횕_횑횑_횊_횏횂횑횣_53-2" cx="4.82" cy="35.13" fx="4.82" fy="35.13" r="3.53" xlink:href="#_횂횁_횕_횑횑_횊_횏횂횑횣_53"/><radialGradient id="_횂횁_횕_횑횑_횊_횏횂횑횣_53-3" cx="17.84" cy="12.84" fx="17.84" fy="12.84" r="2.38" xlink:href="#_횂횁_횕_횑횑_횊_횏횂횑횣_53"/></defs><g style="isolation:isolate;"><g id="Layer_2"><g id="game"><path d="M0,11.69l4.41,24.34-4.41.4,2.2,15.28,83.82,3.18,29.27-23.49-.79-2.93L89.3,1.53S47.98,9.57,0,11.69Z" style="fill:url(#_횂횁_횕_횑횑_횊_횏횂횑횣_62); fill-rule:evenodd;"/><path d="M89.3,1.53l-1.5-1.53-50.88,6.35L4.01,7.51,0,11.69S52.03,9.56,89.3,1.53Z" style="fill:url(#_횂횁_횕_횑횑_횊_횏횂횑횣_53); fill-rule:evenodd;"/><polygon points="115.29 31.41 109.39 29.52 85.29 49.17 5.28 48.79 2.2 51.72 86.03 54.9 115.29 31.41" style="fill:url(#_횂횁_횕_횑횑_횊_횏횂횑횣_80); fill-rule:evenodd;"/><polygon points="0 36.43 4.01 33.83 4.24 35.13 9.64 35.85 0 36.43" style="fill:url(#_횂횁_횕_횑횑_횊_횏횂횑횣_53-2); fill-rule:evenodd;"/><polygon points="9.64 35.85 29.99 35.8 51.42 36.77 89.3 37.01 110.65 35.13 109.03 36.43 71.89 37.71 9.64 35.85" style="fill:#76ffea; fill-rule:evenodd;"/><polygon points="89.3 1.53 100.59 16.49 114.51 28.47 89.3 1.53" style="fill:#76ffea; fill-rule:evenodd;"/><polygon points="15.69 10.79 32.3 10.43 55.37 7.04 33.81 7.78 15.69 10.79" style="fill:#76ffea; fill-rule:evenodd;"/><polygon points="83.33 2.74 90.44 2.74 88.5 .71 83.33 2.74" style="fill:#76ffea; fill-rule:evenodd;"/><polygon points="93.16 49.17 86.24 53.69 62.84 54.02 86.03 54.9 93.16 49.17" style="fill:#2781cd; fill-rule:evenodd;"/><polygon points="55.37 53.73 35.53 51.17 15.69 51.88 2.2 51.72 55.37 53.73" style="fill:#2781cd; fill-rule:evenodd;"/><polygon points="1.84 49.17 10.48 52.03 2.2 51.72 1.84 49.17" style="fill:#2781cd; fill-rule:evenodd;"/><polygon points="29.04 36.42 31.04 36.72 36.49 36.65 29.04 36.42" style="fill:#76ffea; fill-rule:evenodd;"/><polygon points="78.76 37.47 87.13 37.87 104.11 36.6 78.76 37.47" style="fill:#76ffea; fill-rule:evenodd;"/><polygon points="9.15 29.52 13.13 33.83 16.39 34.71 12.03 32.12 9.15 29.52" style="fill:#2781cd; fill-rule:evenodd;"/><polygon points="93.16 35.53 97.27 28.21 95.22 33.83 93.16 35.53" style="fill:#2781cd; fill-rule:evenodd;"/><polygon points="29.04 44.63 45.36 46.77 35.53 46.77 29.04 44.63" style="fill:#2781cd; fill-rule:evenodd;"/><polygon points="93.16 35.53 94.98 34.41 95.43 33.25 93.16 35.53" style="fill:#76ffea; fill-rule:evenodd;"/><polygon points="33.27 46.02 42.27 46.77 35.53 46.77 33.27 46.02" style="fill:#76ffea; fill-rule:evenodd;"/><polygon points="16.39 34.71 12.77 33.44 13.13 33.83 16.39 34.71" style="fill:#76ffea; fill-rule:evenodd;"/><polygon points="70.44 4.99 85.29 3.31 90.8 4.15 97.07 13.56 100.35 16.16 90.44 2.74 83.95 2.5 70.44 4.99" style="fill:#76ffea; fill-rule:evenodd;"/><polygon points="2.85 27.44 1.56 14.12 2.2 12.71 15.69 10.79 0 11.69 2.85 27.44" style="fill:#76ffea; fill-rule:evenodd;"/><polygon points="0 11.69 7.84 7.37 4.01 7.51 0 11.69" style="fill:#fcca70; fill-rule:evenodd; mix-blend-mode:soft-light;"/><polygon points="80.2 .95 78.31 3.54 83.95 2.5 88.5 .71 87.81 0 80.2 .95" style="fill:#fcca70; fill-rule:evenodd; mix-blend-mode:soft-light;"/><polygon points="18.87 9.05 15.69 10.79 17.95 16.16 17.28 10.67 18.87 9.05" style="fill:#2781cd; fill-rule:evenodd;"/><polygon points="17.95 16.16 17.71 10.74 18.4 9.53 17.28 10.67 17.95 16.16" style="fill:url(#_횂횁_횕_횑횑_횊_횏횂횑횣_53-3); fill-rule:evenodd;"/><polygon points="76 52.45 79.57 50.87 83.4 49.17 79.7 51.88 76 52.45" style="fill:#2781cd; fill-rule:evenodd;"/><polygon points="65.44 54.12 61.52 50.81 66.21 54.12 65.44 54.12" style="fill:#2781cd; fill-rule:evenodd;"/><polygon points="85.29 50.81 87.66 48.66 91.43 46.77 85.29 50.81" style="fill:#2781cd; fill-rule:evenodd;"/><polygon points="6.16 23.66 6.16 22.81 7.84 19.61 6.16 23.66" style="fill:#2781cd; fill-rule:evenodd; opacity:.4;"/><polygon points="115.29 31.41 113 29.53 112.4 26.66 114.51 28.47 115.29 31.41" style="fill:#76ffea; fill-rule:evenodd;"/><polygon points="4.01 7.51 6.2 31.41 4.01 33.83 0 11.69 4.01 7.51" style="fill:#4057c9; fill-rule:evenodd; mix-blend-mode:multiply; opacity:.2;"/><polygon points="0 36.43 4.01 33.83 5.28 48.79 2.2 51.72 0 36.43" style="fill:#4057c9; fill-rule:evenodd; mix-blend-mode:multiply; opacity:.4;"/><polygon points="85.29 49.17 86.03 54.9 115.29 31.41 114.51 28.47 87.81 0 89.3 3.54 109.39 29.52 85.29 49.17" style="fill:#4057c9; fill-rule:evenodd; mix-blend-mode:multiply; opacity:.4;"/><polygon points="15.96 35.88 28.54 15.78 84.04 8.98 15.96 35.88" style="fill:#76ffea; fill-rule:evenodd; mix-blend-mode:soft-light; opacity:.3;"/><polygon points="97.97 30.85 84.04 8.98 84.54 20.21 97.97 30.85" style="fill:#76ffea; fill-rule:evenodd; mix-blend-mode:soft-light; opacity:.3;"/><polygon points="28.54 15.78 24.93 10.29 12.78 10.75 14.47 35.8 15.96 35.88 28.54 15.78" style="fill:#acabff; fill-rule:evenodd; mix-blend-mode:multiply; opacity:.2;"/></g></g></g></svg>