<?xml version="1.0" encoding="UTF-8"?><svg xmlns="http://www.w3.org/2000/svg" xmlns:xlink="http://www.w3.org/1999/xlink" viewBox="0 0 61.73 61.21"><defs><radialGradient id="_횂횁_횕_횑횑_횊_횏횂횑횣_62" cx="29.77" cy="42.11" fx="29.77" fy="42.11" r="30.27" gradientUnits="userSpaceOnUse"><stop offset="0" stop-color="#247eff"/><stop offset="1" stop-color="#04c0e8"/></radialGradient><radialGradient id="_횂횁_횕_횑횑_횊_횏횂횑횣_53" cx="31.17" cy="14.82" fx="31.17" fy="14.82" r="24.01" gradientUnits="userSpaceOnUse"><stop offset="0" stop-color="#68fffe"/><stop offset="1" stop-color="#24c7ff"/></radialGradient><radialGradient id="_횂횁_횕_횑횑_횊_횏횂횑횣_80" cx="32.84" cy="46.95" fx="32.84" fy="46.95" r="21.28" gradientUnits="userSpaceOnUse"><stop offset="0" stop-color="#68fffe"/><stop offset="1" stop-color="#24f2ff"/></radialGradient><radialGradient id="_횂횁_횕_횑횑_횊_횏횂횑횣_53-2" cx="3.98" cy="32.38" fx="3.98" fy="32.38" r="2.37" xlink:href="#_횂횁_횕_횑횑_횊_횏횂횑횣_53"/><linearGradient id="_횂횁_횕_횑횑_횊_횏횂횑횣_77" x1="15.07" y1="34.56" x2="15.07" y2="4.85" gradientUnits="userSpaceOnUse"><stop offset="0" stop-color="#000"/><stop offset="1" stop-color="#4590c2"/></linearGradient></defs><g style="isolation:isolate;"><g id="Layer_2"><g id="game"><path d="M61.73,29.65l-1.46,8.09c-4.04,4.67-11.84,9.97-11.84,9.97-17.73,11.29-39.7,13.5-39.7,13.5l-3.31-1.87c-2.58-9.01-3.97-18.06-4.68-26.09h6.48L.37,28.1C-.38,14.93.61,5.55.61,5.55l4.81-3.39C39.06-1.93,61.73,29.65,61.73,29.65Z" style="fill:url(#_횂횁_횕_횑횑_횊_횏횂횑횣_62); fill-rule:evenodd;"/><path d="M6.65.03s-2.29,18.16-2.67,28.2l-3.61-.13s-.97-14.36.24-22.55L6.65.03Z" style="fill:#4057c9; fill-rule:evenodd; mix-blend-mode:multiply; opacity:.4;"/><path d="M.61,5.55L6.65.03s24.52-1.89,55.07,24.87v4.75S29.39-4.52.61,5.55Z" style="fill:url(#_횂횁_횕_횑횑_횊_횏횂횑횣_53); fill-rule:evenodd;"/><polygon points="20.69 4.69 27.11 8.93 39.94 12.6 30.32 7.36 22.69 5.02 20.69 4.69" style="fill:#76ffea; fill-rule:evenodd;"/><polygon points=".61 5.55 .42 7.88 3.98 4.69 1.88 4.39 .61 5.55" style="fill:#76ffea; fill-rule:evenodd;"/><polygon points="59.6 27.54 61.72 27.54 61.72 29.65 61.39 31.5 59.6 27.54" style="fill:#76ffea; fill-rule:evenodd;"/><polygon points="11.62 10.14 12.7 8.84 16.75 10.14 15.67 12.24 12.99 12.24 11.62 10.14" style="fill:#2781cd; fill-rule:evenodd;"/><polygon points="3.66 16.03 4.17 15.52 6.34 16.58 4.95 17.48 3.66 16.5 3.66 16.03" style="fill:#2781cd; fill-rule:evenodd;"/><polygon points="11.62 10.14 12.97 11.82 15.21 12.08 15.75 12.08 15.67 12.24 12.99 12.4 11.62 10.14" style="fill:#76ffea; fill-rule:evenodd;"/><polygon points="3.66 16.5 4.57 17.05 5.49 17.05 6.34 16.58 5.23 17.48 4.95 17.48 3.66 16.5" style="fill:#76ffea; fill-rule:evenodd;"/><path d="M5.42,59.34l23.6-3.51,10.67-3.37s-11.83,6.26-30.96,8.75l-3.31-1.87Z" style="fill:#2781cd; fill-rule:evenodd;"/><polygon points="7.22 33.25 18.56 36.03 25.79 37.01 36.33 39.92 25.51 38.28 7.22 33.25" style="fill:#76ffea; fill-rule:evenodd;"/><polygon points="16.09 35.69 20.1 37.42 25.51 38.28 16.09 35.69" style="fill:#76ffea; fill-rule:evenodd;"/><polygon points="46.4 48.95 49.15 42.94 52.5 36.98 50.01 42.97 48.89 47.39 46.4 48.95" style="fill:#76ffea; fill-rule:evenodd;"/><polygon points="41.77 15.63 41.23 13.38 42.27 11.27 41.77 15.63" style="fill:#2781cd; fill-rule:evenodd;"/><polygon points=".42 7.88 5 5.35 16.09 4.39 20.8 5.35 27.11 8.93 38.96 12.87 41.23 13.38 39.47 12.33 27.11 8.93 20.69 4.69 14.18 3.58 7.29 3.58 3.66 4.64 .42 7.88" style="fill:#76ffea; fill-rule:evenodd;"/><path d="M5.42,59.34l1.75-5.2s17.78-.67,26.24-2.58c8.46-1.92,24.38-17,24.38-17l2.48,3.18s-9.68,10.42-20.58,14.72c-10.89,4.31-34.27,6.88-34.27,6.88Z" style="fill:url(#_횂횁_횕_횑횑_횊_횏횂횑횣_80); fill-rule:evenodd;"/><path d="M.74,33.25l4.16-1.75s.71,15.58,2.27,22.64l-1.75,5.2S1.47,48.31.74,33.25Z" style="fill:#4057c9; fill-rule:evenodd; mix-blend-mode:multiply; opacity:.4;"/><polygon points=".74 33.25 4.89 31.5 7.22 33.25 .74 33.25" style="fill:url(#_횂횁_횕_횑횑_횊_횏횂횑횣_53-2); fill-rule:evenodd;"/><polygon points="14.18 4.85 4.95 34.56 25.2 27.07 14.18 4.85" style="fill:url(#_횂횁_횕_횑횑_횊_횏횂횑횣_77); fill-rule:evenodd; mix-blend-mode:screen; opacity:.5;"/><polygon points="33.41 51.56 25.2 27.07 50.52 41.73 33.41 51.56" style="fill:#818dff; fill-rule:evenodd; mix-blend-mode:multiply; opacity:.2;"/></g></g></g></svg>