<?xml version="1.0" encoding="UTF-8"?><svg xmlns="http://www.w3.org/2000/svg" xmlns:xlink="http://www.w3.org/1999/xlink" viewBox="0 0 81.71 73.32"><defs><radialGradient id="_횂횁_횕_횑횑_횊_횏횂횑횣_53" cx="40.86" cy="19.35" fx="40.86" fy="19.35" r="31.96" gradientUnits="userSpaceOnUse"><stop offset="0" stop-color="#68fffe"/><stop offset="1" stop-color="#24c7ff"/></radialGradient><radialGradient id="_횂횁_횕_횑횑_횊_횏횂횑횣_62" cx="39.84" cy="50.82" fx="39.84" fy="50.82" r="37.87" gradientUnits="userSpaceOnUse"><stop offset="0" stop-color="#247eff"/><stop offset="1" stop-color="#04c0e8"/></radialGradient><radialGradient id="_횂횁_횕_횑횑_횊_횏횂횑횣_80" cx="19.95" cy="60.95" fx="19.95" fy="60.95" r="19.4" gradientUnits="userSpaceOnUse"><stop offset="0" stop-color="#68fffe"/><stop offset="1" stop-color="#24f2ff"/></radialGradient><radialGradient id="_횂횁_횕_횑횑_횊_횏횂횑횣_53-2" cx="60.78" cy="61.68" fx="60.78" fy="61.68" r="19.08" xlink:href="#_횂횁_횕_횑횑_횊_횏횂횑횣_53"/><radialGradient id="_횂횁_횕_횑횑_횊_횏횂횑횣_53-3" cx="21.06" cy="56.28" fx="21.06" fy="56.28" r="4.88" xlink:href="#_횂횁_횕_횑횑_횊_횏횂횑횣_53"/><linearGradient id="_횂횁_횕_횑횑_횊_횏횂횑횣_77" x1="28.1" y1="35.24" x2="28.1" y2="11.35" gradientUnits="userSpaceOnUse"><stop offset="0" stop-color="#000"/><stop offset="1" stop-color="#4590c2"/></linearGradient></defs><g style="isolation:isolate;"><g id="Layer_2"><g id="game"><path d="M0,38.7l1.8-7.77S19.12,8.33,38.78.34c1.12-.45,3.71.02,4.84-.34,0,0,24.03,13.85,36.18,32.14l1.91,6.56H0Z" style="fill:url(#_횂횁_횕_횑횑_횊_횏횂횑횣_53); fill-rule:evenodd;"/><path d="M77.59,46.32c-11.84,17.08-36.67,27-36.67,27l-.06-2.8-.06,2.8s-14.46-5.77-26.58-16.1h13.67l-16.15-2.22c-4.97-4.64-9.33-10.11-11.74-16.3C8.49,16.97,40.8,4.07,40.8,4.07l.06,2.81.06-2.81s32.31,12.91,40.79,34.63c-.51,1.29-1.1,2.56-1.76,3.8l-2.36,3.83Z" style="fill:url(#_횂횁_횕_횑횑_횊_횏횂횑횣_62); fill-rule:evenodd;"/><polygon points="38.78 .34 39.48 4.63 42.23 4.63 43.62 0 38.78 .34" style="fill:#76ffea; fill-rule:evenodd;"/><path d="M0,38.7l3-3.47s12.24,19.58,37.86,31.58l.07,6.5s-19.85-9.36-26.7-16.1v-1.88l-2.48-.34s-7.44-6.78-11.74-16.3Z" style="fill:url(#_횂횁_횕_횑횑_횊_횏횂횑횣_80); fill-rule:evenodd;"/><path d="M40.85,66.82s25.14-9.65,36.65-29.33l4.2,1.21s-9.49,22.11-40.79,34.62l-.07-6.5Z" style="fill:url(#_횂횁_횕_횑횑_횊_횏횂횑횣_53-2); fill-rule:evenodd;"/><polygon points="14.22 57.22 14.22 55.34 27.89 57.22 14.22 57.22" style="fill:url(#_횂횁_횕_횑횑_횊_횏횂횑횣_53-3); fill-rule:evenodd;"/><polygon points="27.89 57.22 52.24 58.27 59.55 58.27 66.24 58.27 55.83 59.18 41.2 58.2 27.89 57.22" style="fill:#2781cd; fill-rule:evenodd;"/><path d="M27.89,66.82l16.44,5-3.41,1.51s-9.27-4.2-13.03-6.5Z" style="fill:#2781cd; fill-rule:evenodd;"/><polygon points="11.74 22.39 16.05 25.91 20.33 26.27 11.74 22.39" style="fill:#2781cd; fill-rule:evenodd;"/><polygon points="63.64 53.48 75.83 48.69 69.73 52.52 63.64 53.48" style="fill:#2781cd; fill-rule:evenodd;"/><polygon points="63.64 53.48 69.73 52.52 71.06 51.68 63.64 53.48" style="fill:#76ffea; fill-rule:evenodd;"/><polygon points="44.33 58.41 47.06 58.92 55.83 59.18 44.33 58.41" style="fill:#76ffea; fill-rule:evenodd;"/><polygon points="67.35 20.06 67.79 18.22 68.34 20.91 64.91 22.39 67.35 20.06" style="fill:#2781cd; fill-rule:evenodd;"/><polygon points="64.91 22.39 66.84 21.09 68.34 20.91 64.91 22.39" style="fill:#76ffea; fill-rule:evenodd;"/><polygon points="64.91 30.93 61.51 41.15 64.14 36.04 64.91 30.93" style="fill:#2781cd; fill-rule:evenodd;"/><polygon points="16.99 17.93 29.12 12.17 39.48 4.63 26.33 10.32 16.99 17.93" style="fill:#76ffea; fill-rule:evenodd;"/><polygon points="42.23 4.63 45.84 5.73 55.57 10 59.42 14.05 42.23 4.63" style="fill:#76ffea; fill-rule:evenodd;"/><polygon points="48.53 8.08 57.98 14.7 67.35 20.06 59.42 14.05 48.53 8.08" style="fill:#76ffea; fill-rule:evenodd;"/><polygon points="16.99 17.93 13.3 20.98 18.27 18.22 26.56 13.38 16.99 17.93" style="fill:#76ffea; fill-rule:evenodd;"/><polygon points="26.56 25.23 32.07 24.33 29.31 25.23 26.56 25.23" style="fill:#2781cd; fill-rule:evenodd;"/><polygon points="26.56 25.23 29.16 25.42 32.07 24.33 29.31 25.23 26.56 25.23" style="fill:#76ffea; fill-rule:evenodd;"/><polygon points="12.81 23.27 15.43 26.27 19.56 26.2 16.05 25.91 12.81 23.27" style="fill:#76ffea; fill-rule:evenodd;"/><polygon points="61.51 41.15 64.14 36.04 63.64 37.88 61.51 41.15" style="fill:#76ffea; fill-rule:evenodd;"/><polygon points="53.2 11.35 3 35.24 40.6 32.52 53.2 11.35" style="fill:url(#_횂횁_횕_횑횑_횊_횏횂횑횣_77); fill-rule:evenodd; mix-blend-mode:screen; opacity:.5;"/><polygon points="32.38 54.77 40.6 32.52 72.72 42.93 32.38 54.77" style="fill:#818dff; fill-rule:evenodd; mix-blend-mode:multiply; opacity:.2;"/><polygon points="77.51 37.49 73.73 24.33 79.8 32.14 81.71 38.7 77.51 37.49" style="fill:#4057c9; fill-rule:evenodd; mix-blend-mode:multiply; opacity:.4;"/><polygon points="0 38.7 3 35.24 7.84 23.88 1.8 30.93 0 38.7" style="fill:#4057c9; fill-rule:evenodd; mix-blend-mode:multiply; opacity:.4;"/></g></g></g></svg>