<?xml version="1.0" encoding="UTF-8"?><svg xmlns="http://www.w3.org/2000/svg" xmlns:xlink="http://www.w3.org/1999/xlink" viewBox="0 0 114.82 58.53"><defs><radialGradient id="_횂횁_횕_횑횑_횊_횏횂횑횣_62" cx="57.41" cy="40.86" fx="57.41" fy="40.86" r="45.25" gradientUnits="userSpaceOnUse"><stop offset="0" stop-color="#247eff"/><stop offset="1" stop-color="#04c0e8"/></radialGradient><radialGradient id="_횂횁_횕_횑횑_횊_횏횂횑횣_53" cx="91.57" cy="48.49" fx="91.57" fy="48.49" r="19.69" gradientUnits="userSpaceOnUse"><stop offset="0" stop-color="#68fffe"/><stop offset="1" stop-color="#24c7ff"/></radialGradient><radialGradient id="_횂횁_횕_횑횑_횊_횏횂횑횣_80" cx="39.85" cy="54.19" fx="39.85" fy="54.19" r="25.31" gradientUnits="userSpaceOnUse"><stop offset="0" stop-color="#68fffe"/><stop offset="1" stop-color="#24f2ff"/></radialGradient><radialGradient id="_횂횁_횕_횑횑_횊_횏횂횑횣_53-2" cx="37.38" cy="9.09" fx="37.38" fy="9.09" r="22.93" xlink:href="#_횂횁_횕_횑횑_횊_횏횂횑횣_53"/><radialGradient id="_횂횁_횕_횑횑_횊_횏횂횑횣_53-3" cx="92.75" cy="14.72" fx="92.75" fy="14.72" r="18.76" xlink:href="#_횂횁_횕_횑횑_횊_횏횂횑횣_53"/><radialGradient id="_횂횁_횕_횑횑_횊_횏횂횑횣_53-4" cx="16.78" cy="44.98" fx="16.78" fy="44.98" r="6.15" xlink:href="#_횂횁_횕_횑횑_횊_횏횂횑횣_53"/><linearGradient id="_횂횁_횕_횑횑_횊_횏횂횑횣_77" x1="27.97" y1="21.62" x2="27.97" y2="7.58" gradientUnits="userSpaceOnUse"><stop offset="0" stop-color="#000"/><stop offset="1" stop-color="#4590c2"/></linearGradient><linearGradient id="_횂횁_횕_횑횑_횊_횏횂횑횣_77-2" x1="80.85" y1="44.07" x2="80.85" y2="21.62" xlink:href="#_횂횁_횕_횑횑_횊_횏횂횑횣_77"/></defs><g style="isolation:isolate;"><g id="Layer_2"><g id="game"><path d="M0,11.23l5.15,33.07,20.32,1.12H8.1s1.8,13.11,1.8,13.11l59.55-10.98v7.64l4.98,1.7s26.28-5.08,40.39-21.84v-5.61S95.28,4.81,70.68,1.98l-1.23,2.26v9.69L5.31,7.02,0,11.23Z" style="fill:url(#_횂횁_횕_횑횑_횊_횏횂횑횣_62); fill-rule:evenodd;"/><path d="M114.82,35.04l-.96-3.98s-13.13,15.6-44.42,24.13l4.98,1.7s21.82-3.43,40.39-21.84Z" style="fill:url(#_횂횁_횕_횑횑_횊_횏횂횑횣_53); fill-rule:evenodd;"/><polygon points="9.9 58.53 11.65 53.95 10.77 44.25 8.1 45.43 9.9 58.53" style="fill:#4057c9; fill-rule:evenodd; mix-blend-mode:multiply; opacity:.2;"/><polygon points="5.15 44.3 8.1 43.23 6.62 9.09 11.35 4.24 5.31 7.02 0 11.23 5.15 44.3" style="fill:#4057c9; fill-rule:evenodd; mix-blend-mode:multiply; opacity:.2;"/><polygon points="69.44 47.54 71.32 45.19 11.65 53.95 9.9 58.53 69.44 47.54" style="fill:url(#_횂횁_횕_횑횑_횊_횏횂횑횣_80); fill-rule:evenodd;"/><polygon points="5.31 7.02 11.35 4.24 69.45 11.23 69.45 13.94 5.31 7.02" style="fill:url(#_횂횁_횕_횑횑_횊_횏횂횑횣_53-2); fill-rule:evenodd;"/><path d="M70.68,1.98l3.25-1.98s26.61,7.92,40.12,24.76l.77,4.67S94.52,4.95,70.68,1.98Z" style="fill:url(#_횂횁_횕_횑횑_횊_횏횂횑횣_53-3); fill-rule:evenodd;"/><polygon points="0 11.23 15.63 9.52 31.25 9.82 5.31 7.02 0 11.23" style="fill:#76ffea; fill-rule:evenodd;"/><polygon points="8.1 45.43 9.13 44.52 25.46 45.42 8.1 45.43" style="fill:url(#_횂횁_횕_횑횑_횊_횏횂횑횣_53-4); fill-rule:evenodd;"/><polygon points="69.45 4.24 76.97 3.26 70.68 1.98 69.45 4.24" style="fill:#76ffea; fill-rule:evenodd;"/><polygon points="89.65 8.61 95.65 14.72 107.51 21.88 96.92 12.17 89.65 8.61" style="fill:#76ffea; fill-rule:evenodd;"/><polygon points="3.82 35.78 2.33 15.56 1.47 12.95 2.19 11.88 11.46 10.59 13.17 11.23 19.72 9.6 15.63 9.52 0 11.23 3.82 35.78" style="fill:#76ffea; fill-rule:evenodd;"/><polygon points="107.51 21.88 112.56 28.31 114.33 32.05 114.82 35.04 114.82 29.43 110.69 24.02 107.3 21.75 107.51 21.88" style="fill:#2781cd; fill-rule:evenodd;"/><polygon points="25.46 45.42 40.96 44.52 59.09 44.98 42.87 45.43 25.46 45.42" style="fill:#2781cd; fill-rule:evenodd;"/><polygon points="69.44 55.18 80.79 55.24 74.43 56.88 69.44 55.18" style="fill:#2781cd; fill-rule:evenodd;"/><polygon points="9.9 58.53 14.54 56.03 47.92 51.51 9.9 58.53" style="fill:#2781cd; fill-rule:evenodd;"/><polygon points="5.15 44.3 8.1 43.23 22.86 45.28 5.15 44.3" style="fill:#2781cd; fill-rule:evenodd;"/><polygon points="8.16 40.08 12.2 39.01 15.14 38.43 11.65 40.08 8.16 40.08" style="fill:#2781cd; fill-rule:evenodd;"/><polygon points="80.79 49.76 88.72 47.42 84.76 47.42 80.79 49.76" style="fill:#2781cd; fill-rule:evenodd;"/><polygon points="80.79 49.76 85.29 48.92 88.72 47.42 84.76 48.16 80.79 49.76" style="fill:#76ffea; fill-rule:evenodd;"/><polygon points="1.2 19.53 8.77 22.11 1.49 21.09 1.2 19.53" style="fill:#76ffea; fill-rule:evenodd;"/><polygon points="40.75 10.84 39.76 14.72 42.28 11.01 44.33 9.9 40.75 10.84" style="fill:#2781cd; fill-rule:evenodd;"/><polygon points="39.76 14.72 44.33 11.23 44.33 9.9 42.28 11.01 39.76 14.72" style="fill:#76ffea; fill-rule:evenodd;"/><polygon points="69.44 47.54 71.32 45.19 73.81 42.06 69.44 49.76 69.44 47.54" style="fill:#2781cd; fill-rule:evenodd;"/><polygon points="69.44 49.76 71.95 47.42 73.81 42.06 69.44 49.76" style="fill:#76ffea; fill-rule:evenodd;"/><polygon points="35.13 33.53 44.33 28.31 41.39 30.92 35.13 33.53" style="fill:#2781cd; fill-rule:evenodd;"/><polygon points="35.83 33.24 40.49 31.8 43.69 28.87 40.65 31.05 35.83 33.24" style="fill:#76ffea; fill-rule:evenodd;"/><polygon points="48.81 11.71 53.56 13.94 63.81 13.33 48.81 11.71" style="fill:#76ffea; fill-rule:evenodd;"/><polygon points="5.31 7.02 13.17 7.87 11.14 5.45 11.94 4.81 15.63 4.76 11.35 4.24 5.31 7.02" style="fill:#fcca70; fill-rule:evenodd; mix-blend-mode:soft-light;"/><polygon points="45.92 11.71 8.1 7.58 47.84 21.62 45.92 11.71" style="fill:url(#_횂횁_횕_횑횑_횊_횏횂횑횣_77); fill-rule:evenodd; mix-blend-mode:screen; opacity:.5;"/><polygon points="46.39 48.85 47.84 21.62 86.62 44.07 46.39 48.85" style="fill:#818dff; fill-rule:evenodd; mix-blend-mode:multiply; opacity:.2;"/><polygon points="47.84 21.62 113.86 31.05 86.62 44.07 47.84 21.62" style="fill:url(#_횂횁_횕_횑횑_횊_횏횂횑횣_77-2); fill-rule:evenodd; mix-blend-mode:screen; opacity:.5;"/></g></g></g></svg>