<?xml version="1.0" encoding="UTF-8"?><svg xmlns="http://www.w3.org/2000/svg" xmlns:xlink="http://www.w3.org/1999/xlink" viewBox="0 0 136.55 39.97"><defs><radialGradient id="_횂횁_횕_횑횑_횊_횏횂횑횣_62" cx="67.78" cy="29.76" fx="67.78" fy="29.76" r="50.05" gradientUnits="userSpaceOnUse"><stop offset="0" stop-color="#247eff"/><stop offset="1" stop-color="#04c0e8"/></radialGradient><radialGradient id="_횂횁_횕_횑횑_횊_횏횂횑횣_53" cx="67.28" cy="2.89" fx="67.28" fy="2.89" r="37.97" gradientUnits="userSpaceOnUse"><stop offset="0" stop-color="#68fffe"/><stop offset="1" stop-color="#24c7ff"/></radialGradient><radialGradient id="_횂횁_횕_횑횑_횊_횏횂횑횣_80" cx="68.87" cy="38.08" fx="68.87" fy="38.08" r="39.06" gradientUnits="userSpaceOnUse"><stop offset="0" stop-color="#68fffe"/><stop offset="1" stop-color="#24f2ff"/></radialGradient><radialGradient id="_횂횁_횕_횑횑_횊_횏횂횑횣_53-2" cx="3.76" cy="17.79" fx="3.76" fy="17.79" r="2.87" xlink:href="#_횂횁_횕_횑횑_횊_횏횂횑횣_53"/><radialGradient id="_횂횁_횕_횑횑_횊_횏횂횑횣_53-3" cx="121.14" cy="34.87" fx="121.14" fy="34.87" r="7.83" xlink:href="#_횂횁_횕_횑횑_횊_횏횂횑횣_53"/><radialGradient id="_횂횁_횕_횑횑_횊_횏횂횑횣_53-4" cx="34.11" cy="5.84" fx="34.11" fy="5.84" r="1.03" xlink:href="#_횂횁_횕_횑횑_횊_횏횂횑횣_53"/><radialGradient id="_횂횁_횕_횑횑_횊_횏횂횑횣_53-5" cx="90.86" cy="36.19" fx="90.86" fy="36.19" r="4.97" xlink:href="#_횂횁_횕_횑횑_횊_횏횂횑횣_53"/><linearGradient id="_횂횁_횕_횑횑_횊_횏횂횑횣_77" x1="59.15" y1="36.57" x2="59.15" y2="5.91" gradientUnits="userSpaceOnUse"><stop offset="0" stop-color="#000"/><stop offset="1" stop-color="#4590c2"/></linearGradient><linearGradient id="_횂횁_횕_횑횑_횊_횏횂횑횣_59" x1="27.43" y1="21.24" x2="96.17" y2="21.24" gradientUnits="userSpaceOnUse"><stop offset="0" stop-color="#ab4577"/><stop offset="1" stop-color="#fff"/></linearGradient></defs><g style="isolation:isolate;"><g id="Layer_2"><g id="game"><path d="M120.9,34.67l-10.15,4.04,20.78-6.21c-1.86,2.34-4.3,4.83-7.45,7.47H13.66S.76,32.75.07,22.09c-.04-.67-.04-1.35.02-2.05l.24-.09,6.86-2.61-5.19-2.49-.38-.18c1.88-3.87,5.61-8.02,12.04-12.31,0,0,.41.04,1.18.11,8.46.76,60.86,5.13,106.06,1.29,0,0,23.58,8.07,12.79,25.67l-12.79,5.24Z" style="fill:url(#_횂횁_횕_횑횑_횊_횏횂횑횣_62); fill-rule:evenodd;"/><path d="M119.21,36.19s9.88-1.42,12.33-12.12c2.45-10.7-13.76-24.07-13.76-24.07,0,0,27.33,11.16,15.92,29.43l-3.88,1.59,1.72,1.48-7.45,7.47-4.88-3.79Z" style="fill:#4057c9; fill-rule:evenodd; mix-blend-mode:multiply; opacity:.2;"/><path d="M15.77,1.19S5.46,8.65,3.76,18.65c-1.7,9.99,12.91,17.54,12.91,17.54l-3.01,3.79S-.73,32.37.33,19.95l3.28-4.33-2.38-1.14S2.86,7.19,15.77,1.19Z" style="fill:#4057c9; fill-rule:evenodd; mix-blend-mode:multiply; opacity:.2;"/><path d="M120.9,3.76l-3.12-3.76-63.69,2.36L17.91,0l-4.24,2.36s60.29,6.68,107.23,1.4Z" style="fill:url(#_횂횁_횕_횑횑_횊_횏횂횑횣_53); fill-rule:evenodd;"/><path d="M136.51,20.24s1.81-12.22-18.74-20.24l3.12,3.76s14.92,5.61,15.61,16.49Z" style="fill:#76ffea; fill-rule:evenodd;"/><path d="M.09,20.04l.24-.09c-.13.69-.21,1.4-.26,2.14-.01.16-.01.33-.02.5,0,0-.12-.97,0-2.53H.05s.04-.02.04-.02Z" style="fill:#76ffea; fill-rule:evenodd;"/><path d="M17.91,0l-3.07,2.47h-.01S6.03,6.61,2,14.85l-.38-.18-.39-.19C3.03,9.44,7.42,3.31,17.91,0Z" style="fill:#76ffea; fill-rule:evenodd;"/><polygon points="124.08 39.97 119.21 36.19 16.67 36.19 13.66 39.97 124.08 39.97" style="fill:url(#_횂횁_횕_횑횑_횊_횏횂횑횣_80); fill-rule:evenodd;"/><polygon points="114.7 4.51 122.77 4.51 119.74 2.36 114.7 4.51" style="fill:#76ffea; fill-rule:evenodd;"/><polygon points="11.4 4.51 18.49 2.89 15.22 1.49 11.4 4.51" style="fill:#76ffea; fill-rule:evenodd;"/><polygon points=".33 19.95 3.62 15.63 7.19 17.34 .33 19.95" style="fill:url(#_횂횁_횕_횑횑_횊_횏횂횑횣_53-2); fill-rule:evenodd;"/><polygon points="131.53 32.5 129.81 31.02 110.75 38.71 131.53 32.5" style="fill:url(#_횂횁_횕_횑횑_횊_횏횂횑횣_53-3); fill-rule:evenodd;"/><polygon points="36.45 4.28 51.47 6.72 85.9 5.79 55.94 4.51 36.45 4.28" style="fill:#76ffea; fill-rule:evenodd;"/><polygon points="97 5.97 112.52 5.16 118.14 5.97 125.53 6.9 133.98 13.55 130.41 9.36 122.77 4.69 115.25 4.46 97 5.97" style="fill:#76ffea; fill-rule:evenodd;"/><path d="M2.83,13.33l6.75-7.08,5.37-1.27,10.46-1.15,11.65.45-18.57-1.38-7.09,1.62-4.21,3.4s-3.26,2.89-4.37,5.42Z" style="fill:#76ffea; fill-rule:evenodd;"/><polygon points="7.19 17.34 21.03 17.34 76.51 19.88 12.43 18 7.19 17.34" style="fill:#76ffea; fill-rule:evenodd;"/><polygon points="12.43 18 16.55 18.66 25.91 18.66 12.43 18" style="fill:#76ffea; fill-rule:evenodd;"/><polygon points="13.66 39.97 46.43 38.27 69.47 39.97 91.67 39.12 95.47 37.36 92.31 39.97 13.66 39.97" style="fill:#2781cd; fill-rule:evenodd;"/><polygon points="106.33 39.97 110.75 38.71 108.98 39.97 106.33 39.97" style="fill:#2781cd; fill-rule:evenodd;"/><polygon points="29.35 36.32 24.15 31.02 28.42 33.87 29.35 36.32" style="fill:#2781cd; fill-rule:evenodd;"/><polygon points="83.96 37.5 97.76 34.87 88.9 37.36 83.96 37.5" style="fill:#2781cd; fill-rule:evenodd;"/><polygon points="36.45 2.36 32.29 3.92 34.41 7.17 34.77 3.92 36.45 2.36" style="fill:#2781cd; fill-rule:evenodd;"/><polygon points="34.41 7.17 33.51 5.79 34.7 4.51 34.41 7.17" style="fill:url(#_횂횁_횕_횑횑_횊_횏횂횑횣_53-4); fill-rule:evenodd;"/><polygon points="92.43 15.63 98.96 21.17 95.47 19.37 92.43 15.63" style="fill:#2781cd; fill-rule:evenodd;"/><polygon points="83.96 37.5 88.9 37.36 97.76 34.87 88.46 37.04 83.96 37.5" style="fill:url(#_횂횁_횕_횑횑_횊_횏횂횑횣_53-5); fill-rule:evenodd;"/><polygon points="24.15 31.02 26.75 34.26 29.35 36.32 24.15 31.02" style="fill:#76ffea; fill-rule:evenodd;"/><polygon points="94.58 5.56 91.67 .97 113.14 .17 114.7 4.51 94.58 5.56" style="fill:#fcca70; fill-rule:evenodd; mix-blend-mode:soft-light;"/><polygon points="20.23 3 22.27 .28 17.91 0 15.77 1.73 18.49 2.89 20.23 3" style="fill:#fcca70; fill-rule:evenodd; mix-blend-mode:soft-light;"/><polygon points="99.54 17.34 96.8 8.74 98.96 13.37 99.54 17.34" style="fill:#2781cd; fill-rule:evenodd;"/><polygon points="122.77 28.4 123.85 27.1 127.9 28.4 126.82 30.5 124.14 30.5 122.77 28.4" style="fill:#2781cd; fill-rule:evenodd;"/><polygon points="19.37 24.57 19.88 24.07 22.05 25.13 20.66 26.02 19.37 25.04 19.37 24.57" style="fill:#2781cd; fill-rule:evenodd;"/><polygon points="122.77 28.4 124.12 30.08 126.37 30.34 126.9 30.34 126.82 30.5 124.14 30.66 122.77 28.4" style="fill:#76ffea; fill-rule:evenodd;"/><polygon points="19.37 25.04 20.28 25.6 21.2 25.6 22.05 25.13 20.94 26.02 20.66 26.02 19.37 25.04" style="fill:#76ffea; fill-rule:evenodd;"/><polygon points="27.43 36.57 90.86 5.91 51.47 6.72 27.43 36.57" style="fill:url(#_횂횁_횕_횑횑_횊_횏횂횑횣_77); fill-rule:evenodd; mix-blend-mode:screen; opacity:.5;"/><polygon points="90.86 5.91 96.17 31.43 81.99 34.28 62.23 35.29 27.43 36.57 90.86 5.91" style="fill:url(#_횂횁_횕_횑횑_횊_횏횂횑횣_59); fill-rule:evenodd; mix-blend-mode:multiply; opacity:.2;"/></g></g></g></svg>