<?xml version="1.0" encoding="UTF-8"?><svg xmlns="http://www.w3.org/2000/svg" xmlns:xlink="http://www.w3.org/1999/xlink" viewBox="0 0 163.39 64.53"><defs><radialGradient id="_횂횁_횕_횑횑_횊_횏횂횑횣_62" cx="83.71" cy="50.66" fx="83.71" fy="50.66" r="61.63" gradientUnits="userSpaceOnUse"><stop offset="0" stop-color="#247eff"/><stop offset="1" stop-color="#04c0e8"/></radialGradient><radialGradient id="_횂횁_횕_횑횑_횊_횏횂횑횣_53" cx="85.18" cy="5.25" fx="85.18" fy="5.25" r="48.21" gradientUnits="userSpaceOnUse"><stop offset="0" stop-color="#68fffe"/><stop offset="1" stop-color="#24c7ff"/></radialGradient><radialGradient id="_횂횁_횕_횑횑_횊_횏횂횑횣_80" cx="80.59" cy="59.13" fx="80.59" fy="59.13" r="56.61" gradientUnits="userSpaceOnUse"><stop offset="0" stop-color="#68fffe"/><stop offset="1" stop-color="#24f2ff"/></radialGradient><linearGradient id="_횂횁_횕_횑횑_횊_횏횂횑횣_77" x1="52.92" y1="50.86" x2="52.92" y2="5.71" gradientUnits="userSpaceOnUse"><stop offset="0" stop-color="#000"/><stop offset="1" stop-color="#4590c2"/></linearGradient><linearGradient id="_횂횁_횕_횑횑_횊_횏횂횑횣_77-2" x1="63.17" y1="20.02" x2="155.89" y2="20.02" xlink:href="#_횂횁_횕_횑횑_횊_횏횂횑횣_77"/></defs><g style="isolation:isolate;"><g id="Layer_2"><g id="game"><path d="M160.95,44.61l-24.4,5.43,22.85-1.77c-.66,1.33-1.13,2.06-1.13,2.06l-6.74,5.73c-64.84,17.4-139.52.2-139.52.2l-6.9-4.88C-.48,40.72-.71,32.03.78,25.67h18.87l-18.36-1.91c2.08-6.81,5.94-10.48,5.94-10.48l9.97-4.49c74.38-13.72,135.96,1.7,135.96,1.7l6.77,5.36c5.48,11.76,3.33,22.5,1.02,28.76Z" style="fill:url(#_횂횁_횕_횑횑_횊_횏횂횑횣_62); fill-rule:evenodd;"/><path d="M19.45,51.22l-7.88-6.02-3.18-18.58,4.15-14.8-5.3,1.45L1.29,23.76l2.57.27-3.08,1.64s-2.77,14.27,4.33,25.71l6.9,4.88,1.06.23,6.37-5.27Z" style="fill:#4057c9; fill-rule:evenodd; mix-blend-mode:multiply; opacity:.4;"/><path d="M147.98,10.33s12.34,14.98,9.62,31.27l3.35,3.01s6.11-12.73-1.02-28.76l-6.77-5.36-5.18-.16Z" style="fill:#4057c9; fill-rule:evenodd; mix-blend-mode:multiply; opacity:.4;"/><polygon points="158.3 45.2 145.35 52.63 151.53 56.06 158.27 50.33 159.4 48.27 158.3 45.2" style="fill:#4057c9; fill-rule:evenodd; mix-blend-mode:multiply; opacity:.4;"/><polygon points="159.4 48.27 158.3 45.2 136.56 50.05 159.4 48.27" style="fill:#76ffea; fill-rule:evenodd;"/><path d="M17.2,8.79S41.33,2.55,77.31.28c35.98-2.27,75.86,10.22,75.86,10.22,0,0-68.09-14.15-135.96-1.7Z" style="fill:url(#_횂횁_횕_횑횑_횊_횏횂횑횣_53); fill-rule:evenodd;"/><path d="M13.07,56.5s77.42,14.43,138.46-.43c0,0-51.73,18.76-138.46.43Z" style="fill:#2781cd; fill-rule:evenodd;"/><polygon points="33.74 25.67 46.5 25.67 73.83 26.94 43.16 26.94 33.74 25.67" style="fill:#76ffea; fill-rule:evenodd;"/><polygon points=".78 25.67 3.86 24.03 33.74 25.67 19.34 26.58 .78 25.67" style="fill:#76ffea; fill-rule:evenodd;"/><polygon points="136.56 50.05 127.63 51.69 113.41 56.06 124.99 53.57 136.56 50.05" style="fill:#2781cd; fill-rule:evenodd;"/><polygon points="15.43 51.22 11.56 45.2 15.43 48.21 15.43 51.22" style="fill:#2781cd; fill-rule:evenodd;"/><polygon points="149.98 38.84 147.98 36.61 142.97 26.31 149.98 38.84" style="fill:#2781cd; fill-rule:evenodd;"/><polygon points="147.14 38.84 144.96 38.14 140.32 39.56 147.14 38.84" style="fill:#2781cd; fill-rule:evenodd;"/><polygon points="22 21.41 26.7 19.96 38.27 19.96 22 21.41" style="fill:#2781cd; fill-rule:evenodd;"/><polygon points="83.56 56.16 88.92 55.36 90.86 56.63 83.56 56.16" style="fill:#2781cd; fill-rule:evenodd;"/><polygon points="81.21 3.52 89.9 5.58 115.86 5.41 97.49 3.11 81.21 3.52" style="fill:#76ffea; fill-rule:evenodd;"/><polygon points="128.07 6.68 136.56 7.33 142.97 8.71 139.11 10.49 128.07 6.68" style="fill:#76ffea; fill-rule:evenodd;"/><path d="M142.97,8.71l8.27,2.68,7.58,5.81,4.3,11.62s.32-6.08-3.19-12.97l-6.77-5.36-10.19-1.78Z" style="fill:#76ffea; fill-rule:evenodd;"/><path d="M1.29,23.76s4.04-7.21,7.91-10.16c3.87-2.95,18.67-6.55,18.67-6.55l-10.67,1.74-9.97,4.49s-4.72,3.85-5.94,10.48Z" style="fill:#76ffea; fill-rule:evenodd;"/><polygon points=".78 25.67 10.06 26.84 19.34 26.58 .78 25.67" style="fill:#76ffea; fill-rule:evenodd;"/><polygon points="64.27 3.89 69.08 8.71 66.67 4.35 68.33 2.14 64.27 3.89" style="fill:#2781cd; fill-rule:evenodd;"/><polygon points="69.08 8.71 65.66 4.35 68.33 2.14 64.27 3.89 69.08 8.71" style="fill:#76ffea; fill-rule:evenodd;"/><polygon points="22 21.41 27.87 21.41 38.27 19.96 22 21.41" style="fill:#76ffea; fill-rule:evenodd;"/><polygon points="11.56 45.2 12.68 47.95 15.43 51.22 11.56 45.2" style="fill:#76ffea; fill-rule:evenodd;"/><polygon points="113.41 56.06 134.37 50.71 126.8 53.57 119.98 54.97 113.41 56.06" style="fill:#76ffea; fill-rule:evenodd;"/><polygon points="83.56 56.16 85.97 56.87 90.86 56.63 83.56 56.16" style="fill:#76ffea; fill-rule:evenodd;"/><polygon points="3.48 30.85 5.04 30.32 6.77 30.58 5.69 31.48 3.48 30.85" style="fill:#2781cd; fill-rule:evenodd;"/><polygon points="96.81 9.16 97.89 7.86 101.94 9.16 100.86 11.26 98.18 11.26 96.81 9.16" style="fill:#2781cd; fill-rule:evenodd;"/><polygon points="107.29 12.56 107.8 12.06 109.97 13.12 108.58 14.01 107.29 13.03 107.29 12.56" style="fill:#2781cd; fill-rule:evenodd;"/><polygon points="96.81 9.16 98.16 10.84 100.4 11.1 100.94 11.1 100.86 11.26 98.18 11.42 96.81 9.16" style="fill:#76ffea; fill-rule:evenodd;"/><polygon points="107.29 13.03 108.21 13.59 109.13 13.59 109.97 13.12 108.86 14.01 108.58 14.01 107.29 13.03" style="fill:#76ffea; fill-rule:evenodd;"/><polygon points="3.48 30.85 4.82 31.48 6.24 31.67 6.77 30.58 5.86 31.13 3.48 30.85" style="fill:#76ffea; fill-rule:evenodd;"/><path d="M103.03.8l12.83,4.61,9.34.94-2.09-2.86s-14.03-2.23-20.07-2.69Z" style="fill:#fcca70; fill-rule:evenodd; mix-blend-mode:soft-light;"/><path d="M59.47,4.09l6.02-2.89s-11.93.76-25.44,3.15l-4.03,1.64s14.33-1.58,23.46-1.9Z" style="fill:#fcca70; fill-rule:evenodd; mix-blend-mode:soft-light;"/><path d="M13.07,56.5l6.37-5.27s66.84,11.71,125.9,1.41l6.19,3.43s-34.03,15.16-138.46.43Z" style="fill:url(#_횂횁_횕_횑횑_횊_횏횂횑횣_80); fill-rule:evenodd;"/><polygon points="57.57 5.71 42.68 50.86 63.17 34.63 57.57 5.71" style="fill:url(#_횂횁_횕_횑횑_횊_횏횂횑횣_77); fill-rule:evenodd; mix-blend-mode:screen; opacity:.5;"/><polygon points="54.94 56.89 63.17 34.63 101.94 57.08 54.94 56.89" style="fill:#818dff; fill-rule:evenodd; mix-blend-mode:multiply; opacity:.2;"/><path d="M115.86,5.41l-52.69,29.22,92.72-9.67-7.91-14.63s-25.29-4.07-32.12-4.92Z" style="fill:url(#_횂횁_횕_횑횑_횊_횏횂횑횣_77-2); fill-rule:evenodd; mix-blend-mode:screen; opacity:.5;"/></g></g></g></svg>