<?xml version="1.0" encoding="UTF-8"?><svg xmlns="http://www.w3.org/2000/svg" xmlns:xlink="http://www.w3.org/1999/xlink" viewBox="0 0 122.92 41.91"><defs><radialGradient id="_횂횁_횕_횑횑_횊_횏횂횑횣_62" cx="61.46" cy="22.93" fx="61.46" fy="22.93" r="45.49" gradientUnits="userSpaceOnUse"><stop offset="0" stop-color="#247eff"/><stop offset="1" stop-color="#04c0e8"/></radialGradient><radialGradient id="_횂횁_횕_횑횑_횊_횏횂횑횣_80" cx="61.37" cy="39.61" fx="61.37" fy="39.61" r="41.78" gradientUnits="userSpaceOnUse"><stop offset="0" stop-color="#68fffe"/><stop offset="1" stop-color="#24f2ff"/></radialGradient><radialGradient id="_횂횁_횕_횑횑_횊_횏횂횑횣_53" cx="61.46" cy="3.09" fx="61.46" fy="3.09" r="43.52" gradientUnits="userSpaceOnUse"><stop offset="0" stop-color="#68fffe"/><stop offset="1" stop-color="#24c7ff"/></radialGradient><radialGradient id="_횂횁_횕_횑횑_횊_횏횂횑횣_53-2" cx="114.38" cy="32.9" fx="114.38" fy="32.9" r="4.32" xlink:href="#_횂횁_횕_횑횑_횊_횏횂횑횣_53"/><linearGradient id="_횂횁_횕_횑횑_횊_횏횂횑횣_149" x1="15.46" y1="22.79" x2="106.8" y2="22.79" gradientUnits="userSpaceOnUse"><stop offset="0" stop-color="#c77cbd"/><stop offset="1" stop-color="#974577"/></linearGradient><linearGradient id="_횂횁_횕_횑횑_횊_횏횂횑횣_149-2" x1="7.13" y1="16.95" x2="112.55" y2="16.95" xlink:href="#_횂횁_횕_횑횑_횊_횏횂횑횣_149"/><linearGradient id="_횂횁_횕_횑횑_횊_횏횂횑횣_149-3" x1="14.33" y1="35.82" x2="33.45" y2="35.82" xlink:href="#_횂횁_횕_횑횑_횊_횏횂횑횣_149"/><radialGradient id="_횂횁_횕_횑횑_횊_횏횂횑횣_66" cx="22.93" cy="22.54" fx="22.93" fy="22.54" r="12.61" gradientUnits="userSpaceOnUse"><stop offset="0" stop-color="#24b5ff"/><stop offset="1" stop-color="#04c0e8"/></radialGradient><radialGradient id="_횂횁_횕_횑횑_횊_횏횂횑횣_69" cx="22.93" cy="10.88" fx="22.93" fy="10.88" r="9.24" gradientUnits="userSpaceOnUse"><stop offset="0" stop-color="#68fffe"/><stop offset="1" stop-color="#24ffff"/></radialGradient><linearGradient id="_횂횁_횕_횑횑_횊_횏횂횑횣_149-4" x1="13.26" y1="33.49" x2="34.13" y2="33.49" xlink:href="#_횂횁_횕_횑횑_횊_횏횂횑횣_149"/><radialGradient id="_횂횁_횕_횑횑_횊_횏횂횑횣_53-3" cx="3.06" cy="35.64" fx="3.06" fy="35.64" r=".93" xlink:href="#_횂횁_횕_횑횑_횊_횏횂횑횣_53"/><radialGradient id="_횂횁_횕_횑횑_횊_횏횂횑횣_80-2" cx="23.7" cy="31.56" fx="23.7" fy="31.56" r="7.5" xlink:href="#_횂횁_횕_횑횑_횊_횏횂횑횣_80"/></defs><g style="isolation:isolate;"><g id="Layer_2"><g id="game"><path d="M0,3.95l4.24,32.41H1.97l.36,5.56,118.09-.26v-7.83l-12.08-.25,11.37-1.87,3.22-27.06S45.9,6.68,0,3.95Z" style="fill:url(#_횂횁_횕_횑횑_횊_횏횂횑횣_62); fill-rule:evenodd;"/><polygon points="120.42 41.66 112.55 37.3 5.9 39.76 2.32 41.91 120.42 41.66" style="fill:url(#_횂횁_횕_횑횑_횊_횏횂횑횣_80); fill-rule:evenodd;"/><polygon points="112.55 37.3 115.8 31.33 111.92 0 122.92 4.65 119.7 31.71 118.06 31.98 120.42 33.83 120.42 41.66 112.55 37.3" style="fill:#4057c9; fill-rule:evenodd; mix-blend-mode:multiply; opacity:.4;"/><polygon points="4.93 .96 6.41 33.63 4.05 34.93 0 3.95 3.61 0 4.93 .96" style="fill:#4057c9; fill-rule:evenodd; mix-blend-mode:multiply; opacity:.4;"/><polygon points="1.97 36.36 2.32 41.91 5.9 39.76 4.93 34.44 1.97 36.36" style="fill:#4057c9; fill-rule:evenodd; mix-blend-mode:multiply; opacity:.4;"/><path d="M122.92,4.65l-11-4.65-59.39,2.33L3.61,0,0,3.95s68.33,4.52,122.92.7Z" style="fill:url(#_횂횁_횕_횑횑_횊_횏횂횑횣_53); fill-rule:evenodd;"/><polygon points="120.42 33.83 118.06 31.98 108.33 33.58 120.42 33.83" style="fill:url(#_횂횁_횕_횑횑_횊_횏횂횑횣_53-2); fill-rule:evenodd;"/><polygon points="1.97 36.36 10.62 36.94 57.99 39.72 4.16 35.77 1.97 36.36" style="fill:#76ffea; fill-rule:evenodd;"/><polygon points="10.68 29.91 7.13 17.23 58.94 15.31 112.55 17.77 112.07 25.81 109.62 29.11 10.68 29.91" style="fill:#275bc0; fill-rule:evenodd;"/><polygon points="15.46 18.98 16.6 27 103.27 25.82 106.11 25.82 106.8 20.35 62.02 18.58 15.46 18.98" style="fill:url(#_횂횁_횕_횑횑_횊_횏횂횑횣_149); fill-rule:evenodd; mix-blend-mode:multiply; opacity:.6;"/><polygon points="109.62 29.11 108.09 27.57 11.79 28.37 10.68 29.91 59.84 30.65 109.62 29.11" style="fill:#76ffea; fill-rule:evenodd;"/><polygon points="112.55 17.77 108.89 18.58 56.67 16.44 7.51 18.58 7.13 17.23 58.94 15.31 112.55 17.77" style="fill:url(#_횂횁_횕_횑횑_횊_횏횂횑횣_149-2); fill-rule:evenodd; mix-blend-mode:multiply; opacity:.6;"/><polygon points="108.89 18.58 109.62 25.12 108.09 27.57 109.62 29.11 112.07 25.81 112.55 17.77 108.89 18.58" style="fill:#2781cd; fill-rule:evenodd;"/><polygon points="7.13 17.23 10.68 18.44 11.79 28.37 10.68 29.91 8.15 23.44 7.13 17.23" style="fill:#2781cd; fill-rule:evenodd;"/><polygon points="43.03 5.61 59.84 6.81 81.01 6.15 61.46 5.38 43.03 5.61" style="fill:#76ffea; fill-rule:evenodd;"/><polygon points="1.97 4.07 4.93 5.38 14.14 4.72 1.97 4.07" style="fill:#76ffea; fill-rule:evenodd;"/><polygon points="14.33 32.71 17.53 38.92 30.98 38.92 33.45 32.71 14.33 32.71" style="fill:url(#_횂횁_횕_횑횑_횊_횏횂횑횣_149-3); fill-rule:evenodd; mix-blend-mode:multiply; opacity:.6;"/><polygon points="10.06 13.11 13.9 10.19 32.5 10.19 35.81 12.68 34.13 32.38 29.03 34.89 17.98 34.89 13.26 32.07 10.06 13.11" style="fill:url(#_횂횁_횕_횑횑_횊_횏횂횑횣_66); fill-rule:evenodd;"/><polygon points="10.06 13.11 14.95 9.38 31.21 8.65 35.81 12.68 10.06 13.11" style="fill:url(#_횂횁_횕_횑횑_횊_횏횂횑횣_69); fill-rule:evenodd;"/><polygon points="13.26 32.07 20.55 34.89 17.98 34.89 13.26 32.07" style="fill:#2781cd; fill-rule:evenodd;"/><polygon points="34.13 32.38 25.57 34.89 29.03 34.89 34.13 32.38" style="fill:#2781cd; fill-rule:evenodd;"/><polygon points="24.41 12.87 29.85 13.65 35.23 13.11 35.81 12.68 24.41 12.87" style="fill:#76ffea; fill-rule:evenodd;"/><polygon points="10.06 13.11 16.24 14.27 22.1 12.91 15.21 12.28 10.06 13.11" style="fill:#76ffea; fill-rule:evenodd;"/><polygon points="34.13 32.38 23.16 33.48 13.26 32.07 20.55 34.89 26.02 34.91 34.13 32.38" style="fill:url(#_횂횁_횕_횑횑_횊_횏횂횑횣_149-4); fill-rule:evenodd; mix-blend-mode:multiply; opacity:.5;"/><polygon points="81.01 6.15 96.96 6.19 106.22 6.52 117.04 5.95 121.27 6.81 121.86 13.61 122.92 4.65 81.01 6.15" style="fill:#76ffea; fill-rule:evenodd;"/><polygon points="2 18.58 1.26 9.25 1.26 4.72 3.06 4.55 4.93 5.38 3.51 4.14 0 3.95 2 18.58" style="fill:#76ffea; fill-rule:evenodd;"/><polygon points="86.86 8.88 88.62 5.95 95.12 2.72 90.77 5.8 86.86 8.88" style="fill:#2781cd; fill-rule:evenodd;"/><polygon points="63.8 41.78 60.96 37.74 66.5 41.78 63.8 41.78" style="fill:#2781cd; fill-rule:evenodd;"/><polygon points="86.86 8.88 90.99 6.17 95.12 2.72 89.68 6.1 86.86 8.88" style="fill:#76ffea; fill-rule:evenodd;"/><polygon points="63.8 41.78 64.27 41.61 60.96 37.74 63.8 41.78" style="fill:#76ffea; fill-rule:evenodd;"/><polygon points="41.5 31.96 47.89 31.96 51.49 33.33 41.5 31.96" style="fill:#2781cd; fill-rule:evenodd;"/><polygon points="103.84 .32 111.17 .77 116.28 3.95 116.63 4.88 122.92 4.65 111.92 0 103.84 .32" style="fill:#fcca70; fill-rule:evenodd; mix-blend-mode:soft-light;"/><polygon points="0 3.95 8.05 4.37 5.47 2.72 4.93 .96 8.72 .24 3.61 0 0 3.95" style="fill:#fcca70; fill-rule:evenodd; mix-blend-mode:soft-light;"/><polygon points="43.03 5.61 28.03 5.02 29.98 1.25 43.58 1.9 43.03 5.61" style="fill:#fcca70; fill-rule:evenodd; mix-blend-mode:soft-light;"/><polygon points="72.58 5.61 70.75 1.61 77.55 1.25 82.05 6.1 72.58 5.61" style="fill:#fcca70; fill-rule:evenodd; mix-blend-mode:soft-light;"/><polygon points="1.97 36.36 4.05 34.93 4.16 35.77 1.97 36.36" style="fill:url(#_횂횁_횕_횑횑_횊_횏횂횑횣_53-3); fill-rule:evenodd;"/><polygon points="24.94 26.37 32.41 23.46 27.48 26.05 24.94 26.37" style="fill:#76ffea; fill-rule:evenodd;"/><polygon points="21.25 28.86 23.16 31.33 22.4 29.97 21.25 28.86" style="fill:#76ffea; fill-rule:evenodd;"/><polygon points="24.94 26.37 27.91 24.91 32.41 23.46 24.94 26.37" style="fill:#2781cd; fill-rule:evenodd;"/><polygon points="21.25 28.86 22.4 29.97 23.16 31.33 22.54 29.78 21.25 28.86" style="fill:#2781cd; fill-rule:evenodd;"/><polygon points="31.21 8.65 32.41 20 31.81 30.65 34.13 32.38 35.81 12.68 31.21 8.65" style="fill:#4057c9; fill-rule:evenodd; mix-blend-mode:multiply; opacity:.4;"/><polygon points="14.95 9.38 14.33 29.11 13.26 32.07 10.06 13.11 14.95 9.38" style="fill:#4057c9; fill-rule:evenodd; mix-blend-mode:multiply; opacity:.4;"/><polygon points="31.81 30.65 23.7 31.33 14.14 29.64 13.26 32.07 23.16 33.48 34.13 32.38 31.81 30.65" style="fill:url(#_횂횁_횕_횑횑_횊_횏횂횑횣_80-2); fill-rule:evenodd;"/></g></g></g></svg>