<?xml version="1.0" encoding="UTF-8"?><svg xmlns="http://www.w3.org/2000/svg" xmlns:xlink="http://www.w3.org/1999/xlink" viewBox="0 0 121.77 86.88"><defs><radialGradient id="_횂횁_횕_횑횑_횊_횏횂횑횣_62" cx="60.88" cy="46.38" fx="60.88" fy="46.38" r="51.7" gradientUnits="userSpaceOnUse"><stop offset="0" stop-color="#247eff"/><stop offset="1" stop-color="#04c0e8"/></radialGradient><radialGradient id="_횂횁_횕_횑횑_횊_횏횂횑횣_53" cx="60.88" cy="4.14" fx="60.88" fy="4.14" r="43.15" gradientUnits="userSpaceOnUse"><stop offset="0" stop-color="#68fffe"/><stop offset="1" stop-color="#24c7ff"/></radialGradient><radialGradient id="_횂횁_횕_횑횑_횊_횏횂횑횣_85" cx="60.39" cy="47.44" fx="60.39" fy="47.44" r="44.25" gradientUnits="userSpaceOnUse"><stop offset="0" stop-color="#247eff"/><stop offset="1" stop-color="#0497e8"/></radialGradient><radialGradient id="_횂횁_횕_횑횑_횊_횏횂횑횣_53-2" cx="10.48" cy="70.72" fx="10.48" fy="70.72" r="4.06" xlink:href="#_횂횁_횕_횑횑_횊_횏횂횑횣_53"/><linearGradient id="_횂횁_횕_횑횑_횊_횏횂횑횣_149" x1="8.36" y1="15.08" x2="112.42" y2="15.08" gradientUnits="userSpaceOnUse"><stop offset="0" stop-color="#c77cbd"/><stop offset="1" stop-color="#974577"/></linearGradient><radialGradient id="_횂횁_횕_횑횑_횊_횏횂횑횣_53-3" cx="112.55" cy="56.16" fx="112.55" fy="56.16" r="2.42" xlink:href="#_횂횁_횕_횑횑_횊_횏횂횑횣_53"/><radialGradient id="_횂횁_횕_횑횑_횊_횏횂횑횣_53-4" cx="110.2" cy="8.91" fx="110.2" fy="8.91" r="1.6" xlink:href="#_횂횁_횕_횑횑_횊_횏횂횑횣_53"/><radialGradient id="_횂횁_횕_횑횑_횊_횏횂횑횣_80" cx="60.38" cy="84.54" fx="60.38" fy="84.54" r="36.84" gradientUnits="userSpaceOnUse"><stop offset="0" stop-color="#68fffe"/><stop offset="1" stop-color="#24f2ff"/></radialGradient><linearGradient id="_횂횁_횕_횑횑_횊_횏횂횑횣_59" x1="22.16" y1="46.39" x2="114.21" y2="46.39" gradientUnits="userSpaceOnUse"><stop offset="0" stop-color="#ab4577"/><stop offset="1" stop-color="#fff"/></linearGradient></defs><g style="isolation:isolate;"><g id="Layer_2"><g id="game"><path d="M8.34,86.88l-3.28-14.25,43.96-2.25-40.67-.26L0,5.89s67.71,4.8,121.77,0l-7.96,50.28-4.25.26,6.31.57-3.45,29.88H8.34Z" style="fill:url(#_횂횁_횕_횑횑_횊_횏횂횑횣_62); fill-rule:evenodd;"/><polygon points="103.58 82.21 109.56 56.42 109.23 54.12 119.61 0 121.77 5.89 113.94 55.33 115.87 56.99 112.42 86.88 103.58 82.21" style="fill:#4057c9; fill-rule:evenodd; mix-blend-mode:multiply; opacity:.4;"/><polygon points="8.34 86.88 12.64 83.84 11.31 71.94 14.59 69.97 7.04 2.29 0 5.89 8.17 68.82 5.05 72.63 8.34 86.88" style="fill:#4057c9; fill-rule:evenodd; mix-blend-mode:multiply; opacity:.4;"/><path d="M121.77,5.89l-2.15-5.89L37.57,3.93,7.45,1.64,0,5.89s77.56,5.37,121.77,0Z" style="fill:url(#_횂횁_횕_횑횑_횊_횏횂횑횣_53); fill-rule:evenodd;"/><path d="M16.98,77.36l-1.08-5.29L8.36,15.69s56.44.5,104.06-3.02l-8.84,67.33-40.93,2.2-45.67-4.84Z" style="fill:url(#_횂횁_횕_횑횑_횊_횏횂횑횣_85); fill-rule:evenodd;"/><polygon points="5.05 72.63 8.17 68.82 8.34 70.11 15.65 70.16 15.65 70.16 15.9 72.07 5.05 72.63" style="fill:url(#_횂횁_횕_횑횑_횊_횏횂횑횣_53-2); fill-rule:evenodd;"/><polygon points="103.58 80.01 100.99 77.36 57.22 80.14 18.95 76.65 16.98 77.36 58.29 82.21 103.58 80.01" style="fill:#76ffea; fill-rule:evenodd;"/><polygon points="100.99 77.36 104.68 55.39 110.28 12.83 112.42 12.67 106.7 56.21 106.52 57.59 103.58 80.01 100.99 77.36" style="fill:#275bc0; fill-rule:evenodd;"/><polygon points="8.36 15.69 11.31 15.71 16.98 69.6 15.65 70.16 8.36 15.69" style="fill:#275bc0; fill-rule:evenodd;"/><polygon points="15.9 72.07 16.98 77.36 18.95 76.65 17.42 70.77 15.9 72.07" style="fill:#275bc0; fill-rule:evenodd;"/><polygon points="112.42 12.67 109.9 15.69 11.49 17.48 8.36 15.69 112.42 12.67" style="fill:url(#_횂횁_횕_횑횑_횊_횏횂횑횣_149); fill-rule:evenodd; mix-blend-mode:multiply; opacity:.6;"/><polygon points="15.9 72.07 14.59 69.97 15.65 70.16 16.98 69.6 21.79 68.82 60.88 70.45 20.59 70.19 15.9 72.07" style="fill:#275bc0; fill-rule:evenodd;"/><polygon points="60.88 70.45 70.99 68.82 81.15 70.45 60.88 70.45" style="fill:#275bc0; fill-rule:evenodd;"/><polygon points="106.71 5.08 112.42 7.29 108.57 10.47 109.56 7.34 106.71 5.08" style="fill:#2781cd; fill-rule:evenodd;"/><polygon points="32.21 7.52 55.85 5.89 84.13 8.15 62.78 10.29 32.21 7.52" style="fill:#76ffea; fill-rule:evenodd;"/><polygon points="48.87 81.1 71.02 81.59 57.43 83.84 48.87 81.1" style="fill:#76ffea; fill-rule:evenodd;"/><polygon points="115.87 56.99 113.94 55.33 113.81 56.17 109.23 56.47 115.87 56.99" style="fill:url(#_횂횁_횕_횑횑_횊_횏횂횑횣_53-3); fill-rule:evenodd;"/><polygon points="112.42 7.29 117.66 7.76 120.82 7.29 120.25 9.43 118.67 20.99 118.47 26.73 121.77 5.89 110.93 6.72 112.42 7.29" style="fill:#76ffea; fill-rule:evenodd;"/><polygon points="32.9 7.47 0 5.89 4.95 44.01 6.02 41.12 2.65 17.48 2.02 13.6 2.02 9.43 4.25 8.09 18.38 8.28 20.02 7.76 27.57 8.13 32.9 7.47" style="fill:#76ffea; fill-rule:evenodd;"/><polygon points="76.19 2.08 82.91 8.28 98.15 7.53 92.66 1.29 76.19 2.08" style="fill:#fcca70; fill-rule:evenodd; mix-blend-mode:soft-light;"/><polygon points="10.11 6.38 16.08 2.29 19.19 2.53 16.81 6.7 10.11 6.38" style="fill:#fcca70; fill-rule:evenodd; mix-blend-mode:soft-light;"/><polygon points="109.56 .48 116.89 .48 119.56 2.04 118.94 3.46 119.84 4.14 117.66 6.2 121.77 5.89 119.61 0 109.56 .48" style="fill:#fcca70; fill-rule:evenodd; mix-blend-mode:soft-light;"/><polygon points="8.36 6.29 5.12 5.89 3.35 4.78 6.98 3.14 7.04 2.29 9.51 1.8 7.45 1.64 0 5.89 8.36 6.29" style="fill:#fcca70; fill-rule:evenodd; mix-blend-mode:soft-light;"/><polygon points="109.56 7.34 109.77 8.58 111.84 7.77 108.57 10.47 109.56 7.34" style="fill:url(#_횂횁_횕_횑횑_횊_횏횂횑횣_53-4); fill-rule:evenodd;"/><polygon points="109.23 33.4 110.93 36.18 108.87 34.79 109.23 33.4" style="fill:#275bc0; fill-rule:evenodd;"/><polygon points="11.31 34.84 8.36 39.05 11.31 36.94 11.31 34.84" style="fill:#275bc0; fill-rule:evenodd;"/><polygon points="112.42 86.88 103.58 82.21 47.47 84.15 12.64 83.84 8.34 86.88 112.42 86.88" style="fill:url(#_횂횁_횕_횑횑_횊_횏횂횑횣_80); fill-rule:evenodd;"/><polygon points="22.16 56.94 96.74 15.41 35.51 16.76 22.16 56.94" style="fill:#76ffea; fill-rule:evenodd; mix-blend-mode:soft-light; opacity:.3;"/><polygon points="96.74 15.41 114.21 50.05 100.99 77.36 68.76 55.22 22.16 56.94 96.74 15.41" style="fill:url(#_횂횁_횕_횑횑_횊_횏횂횑횣_59); fill-rule:evenodd; mix-blend-mode:multiply; opacity:.2;"/></g></g></g></svg>