<?xml version="1.0" encoding="UTF-8"?><svg xmlns="http://www.w3.org/2000/svg" xmlns:xlink="http://www.w3.org/1999/xlink" viewBox="0 0 111.84 170.96"><defs><radialGradient id="_횂횁_횕_횑횑_횊_횏횂횑횣_62" cx="55.92" cy="87.19" fx="55.92" fy="87.19" r="71.22" gradientUnits="userSpaceOnUse"><stop offset="0" stop-color="#247eff"/><stop offset="1" stop-color="#04c0e8"/></radialGradient><radialGradient id="_횂횁_횕_횑횑_횊_횏횂횑횣_80" cx="55.06" cy="169.08" fx="55.06" fy="169.08" r="31.23" gradientUnits="userSpaceOnUse"><stop offset="0" stop-color="#68fffe"/><stop offset="1" stop-color="#24f2ff"/></radialGradient><radialGradient id="_횂횁_횕_횑횑_횊_횏횂횑횣_53" cx="55.92" cy="4.76" fx="55.92" fy="4.76" r="39.68" gradientUnits="userSpaceOnUse"><stop offset="0" stop-color="#68fffe"/><stop offset="1" stop-color="#24c7ff"/></radialGradient><radialGradient id="_횂횁_횕_횑횑_횊_횏횂횑횣_53-2" cx="24.73" cy="91.06" fx="24.73" fy="91.06" r="13.53" xlink:href="#_횂횁_횕_횑횑_횊_횏횂횑횣_53"/><radialGradient id="_횂횁_횕_횑횑_횊_횏횂횑횣_53-3" cx="9.34" cy="64.27" fx="9.34" fy="64.27" r="3.37" xlink:href="#_횂횁_횕_횑횑_횊_횏횂횑횣_53"/><radialGradient id="_횂횁_횕_횑횑_횊_횏횂횑횣_53-4" cx="103.38" cy="50.94" fx="103.38" fy="50.94" r="2.98" xlink:href="#_횂횁_횕_횑횑_횊_횏횂횑횣_53"/><radialGradient id="_횂횁_횕_횑횑_횊_횏횂횑횣_53-5" cx="19.38" cy="12.15" fx="19.38" fy="12.15" r="2.93" xlink:href="#_횂횁_횕_횑횑_횊_횏횂횑횣_53"/><radialGradient id="_횂횁_횕_횑횑_횊_횏횂횑횣_53-6" cx="100.85" cy="32.83" fx="100.85" fy="32.83" r="3.98" xlink:href="#_횂횁_횕_횑횑_횊_횏횂횑횣_53"/><radialGradient id="_횂횁_횕_횑횑_횊_횏횂횑횣_53-7" cx="89.47" cy="40.53" fx="89.47" fy="40.53" r=".89" xlink:href="#_횂횁_횕_횑횑_횊_횏횂횑횣_53"/><radialGradient id="_횂횁_횕_횑횑_횊_횏횂횑횣_53-8" cx="34.71" cy="75.12" fx="34.71" fy="75.12" r="3.96" xlink:href="#_횂횁_횕_횑횑_횊_횏횂횑횣_53"/><linearGradient id="_횂횁_횕_횑횑_횊_횏횂횑횣_77" x1="35.99" y1="50.48" x2="35.99" y2="10.91" gradientUnits="userSpaceOnUse"><stop offset="0" stop-color="#000"/><stop offset="1" stop-color="#4590c2"/></linearGradient><linearGradient id="_횂횁_횕_횑횑_횊_횏횂횑횣_78" x1="88.65" y1="124.93" x2="88.65" y2="85.61" gradientUnits="userSpaceOnUse"><stop offset="0" stop-color="#4590c2"/><stop offset="1" stop-color="#000"/></linearGradient></defs><g style="isolation:isolate;"><g id="Layer_2"><g id="game"><polygon points="101.06 122.16 103.52 122.8 99.19 170.96 10.94 170.27 5.68 92.91 25.99 90.68 8.13 88.11 0 9.52 39.67 9.52 111.84 3.41 101.06 122.16" style="fill:url(#_횂횁_횕_횑횑_횊_횏횂횑횣_62); fill-rule:evenodd;"/><polygon points="99.19 170.96 94.22 168.06 67.54 167.19 20.86 167.19 15.77 167.98 10.94 170.27 99.19 170.96" style="fill:url(#_횂횁_횕_횑횑_횊_횏횂횑횣_80); fill-rule:evenodd;"/><polygon points="105.34 0 99.94 86.16 97.43 123.35 100.21 124.2 94.22 168.06 99.19 170.96 103.52 122.8 101.06 122.16 111.84 3.41 105.34 0" style="fill:#4057c9; fill-rule:evenodd; mix-blend-mode:multiply; opacity:.4;"/><polygon points="0 9.52 8.13 88.11 13.28 83.7 9.23 4.74 0 9.52" style="fill:#4057c9; fill-rule:evenodd; mix-blend-mode:multiply; opacity:.4;"/><polygon points="0 9.52 9.23 4.74 34.54 5.41 105.34 0 111.84 3.41 39.67 9.52 0 9.52" style="fill:url(#_횂횁_횕_횑횑_횊_횏횂횑횣_53); fill-rule:evenodd;"/><polygon points="5.68 92.91 15.75 89.2 43.78 91.06 5.68 92.91" style="fill:url(#_횂횁_횕_횑횑_횊_횏횂횑횣_53-2); fill-rule:evenodd;"/><polygon points="103.52 122.8 72.51 125.56 101.06 122.16 103.52 122.8" style="fill:#76ffea; fill-rule:evenodd;"/><polygon points="8.29 131.36 72.51 125.56 37.62 129.6 8.29 131.36" style="fill:#2781cd; fill-rule:evenodd;"/><polygon points="99.19 170.96 78.08 169.3 57.57 170.64 10.79 168.06 10.94 170.27 99.19 170.96" style="fill:#2781cd; fill-rule:evenodd;"/><polygon points="28.9 129.6 36.17 123.86 30.47 129.6 28.9 129.6" style="fill:#2781cd; fill-rule:evenodd;"/><polygon points="16.19 9.52 22.57 14.78 18.64 9.52 18.64 7.63 16.19 9.52" style="fill:#2781cd; fill-rule:evenodd;"/><polygon points="24.39 9.52 64.04 7.47 46.17 11.21 24.39 9.52" style="fill:#76ffea; fill-rule:evenodd;"/><polygon points="84.41 5.73 90.38 5.73 100.74 4.35 87.39 4.35 84.41 5.73" style="fill:#76ffea; fill-rule:evenodd;"/><polygon points="82.48 5.9 78.72 2.04 61.17 3.38 61.62 7.47 82.48 5.9" style="fill:#fcca70; fill-rule:evenodd; mix-blend-mode:soft-light;"/><polygon points="20.8 9.52 25.25 5.16 33.8 5.39 30.89 9.18 24.39 9.52 20.8 9.52" style="fill:#fcca70; fill-rule:evenodd; mix-blend-mode:soft-light;"/><polygon points="93.19 .93 103.59 .93 107.48 2.04 107.69 3.41 102.02 4.24 111.84 3.41 105.34 0 93.19 .93" style="fill:#fcca70; fill-rule:evenodd; mix-blend-mode:soft-light;"/><polygon points="19.83 5.02 10.09 5.16 8.13 6.37 4.78 8.07 7.18 8.8 12.31 9.52 0 9.52 9.23 4.74 19.83 5.02" style="fill:#fcca70; fill-rule:evenodd; mix-blend-mode:soft-light;"/><polygon points="71.82 6.7 92.57 6.7 106.97 5.73 110.35 7.07 108.11 19.31 109.25 31.96 111.84 3.41 71.82 6.7" style="fill:#6ae6e0; fill-rule:evenodd;"/><polygon points="0 9.52 6.44 71.79 6.44 49.57 4.19 42.84 3.22 14.78 4.44 12.1 16.19 9.52 0 9.52" style="fill:#6ae6e0; fill-rule:evenodd;"/><polygon points="101.7 143.05 101.7 136.54 101.99 132.68 100.21 128.01 101.99 128.46 102.38 126.24 102.38 123.86 86.82 124.9 84.19 126.31 66.46 126.12 103.52 122.8 101.7 143.05" style="fill:#76ffea; fill-rule:evenodd;"/><polygon points="8.29 131.36 10.19 159.27 11.37 151.4 10.19 148.51 9.45 142.34 9.45 140.8 9.83 140.18 8.98 136.87 8.98 132.27 16.46 131.36 20.9 130.6 8.29 131.36" style="fill:#76ffea; fill-rule:evenodd;"/><polygon points="6.33 102.55 7.35 98.93 6.84 97.03 8.29 94.85 15.9 95.99 26.59 91.89 5.68 92.91 6.33 102.55" style="fill:#2781cd; fill-rule:evenodd;"/><polygon points="20.9 130.6 26.59 131.36 34.87 129.76 20.9 130.6" style="fill:#76ffea; fill-rule:evenodd;"/><polygon points="52.55 91.06 59.72 92.41 75.36 90.07 52.55 91.06" style="fill:#2781cd; fill-rule:evenodd;"/><polygon points="5.39 61.61 13.28 66.94 19.83 68.45 5.39 61.61" style="fill:#2781cd; fill-rule:evenodd;"/><polygon points="107.78 48.17 99.19 50.48 107.57 50.48 107.78 48.17" style="fill:#2781cd; fill-rule:evenodd;"/><polygon points="73.76 169.51 66.46 160.93 76.24 169.51 73.76 169.51" style="fill:#2781cd; fill-rule:evenodd;"/><polygon points="52.55 91.06 59.72 92.65 75.36 90.07 59.72 91.73 52.55 91.06" style="fill:#76ffea; fill-rule:evenodd;"/><polygon points="5.39 61.61 5.51 62.77 13.28 66.94 5.39 61.61" style="fill:url(#_횂횁_횕_횑횑_횊_횏횂횑횣_53-3); fill-rule:evenodd;"/><polygon points="107.57 50.48 99.19 50.48 107.38 51.4 107.57 50.48" style="fill:url(#_횂횁_횕_횑횑_횊_횏횂횑횣_53-4); fill-rule:evenodd;"/><polygon points="16.19 9.52 20.18 11.59 22.57 14.78 16.19 9.52" style="fill:url(#_횂횁_횕_횑횑_횊_횏횂횑횣_53-5); fill-rule:evenodd;"/><polygon points="104.6 85.25 75.36 90.07 92.74 88.54 104.6 85.25" style="fill:#2781cd; fill-rule:evenodd;"/><polygon points="75.36 90.07 86.91 89.8 92.74 88.54 75.36 90.07" style="fill:#76ffea; fill-rule:evenodd;"/><polygon points="95.82 35.36 97.08 31.83 104.44 29.83 105.88 30.7 95.82 35.36" style="fill:#2781cd; fill-rule:evenodd;"/><polygon points="95.82 35.36 96.14 34.46 98.29 34 104.07 31.33 105.21 30.3 105.88 30.7 95.82 35.36" style="fill:url(#_횂횁_횕_횑횑_횊_횏횂횑횣_53-6); fill-rule:evenodd;"/><polygon points="89.85 41.28 88.46 39.79 88.46 38.73 90.48 40.22 89.85 41.28" style="fill:#2781cd; fill-rule:evenodd;"/><polygon points="88.46 39.79 89.47 40.65 89.85 40.65 90.48 40.22 89.85 41.28 88.46 39.79" style="fill:url(#_횂횁_횕_횑횑_횊_횏횂횑횣_53-7); fill-rule:evenodd;"/><polygon points="17.9 104.06 22.57 105.01 25.53 107.86 24.39 108.87 16.19 106.47 17.9 104.06" style="fill:#2781cd; fill-rule:evenodd;"/><polygon points="16.19 106.47 16.52 106 16.88 106.47 23.3 108.38 24.54 108.24 25.43 107.76 25.53 107.86 24.39 108.87 22.97 108.87 16.19 106.47" style="fill:#76ffea; fill-rule:evenodd;"/><polygon points="79.75 162.31 80.97 160.93 87.61 156.41 79.75 162.31" style="fill:#6ae6e0; fill-rule:evenodd;"/><polygon points="86.87 158.58 89.44 156.41 88.59 158.58 86.87 158.58" style="fill:#6ae6e0; fill-rule:evenodd;"/><polygon points="12.99 144.66 18.55 144.94 15.3 145.78 12.99 144.66" style="fill:#2781cd; fill-rule:evenodd;"/><polygon points="16.19 40.24 16.19 38.73 20.8 31.96 16.19 40.24" style="fill:#6ae6e0; fill-rule:evenodd;"/><polygon points="28.11 78.57 27.81 76.29 29.69 72.96 28.11 78.57" style="fill:#2781cd; fill-rule:evenodd;"/><polygon points="29.69 72.65 39.73 77.6 35.87 75.08 29.69 72.65" style="fill:url(#_횂횁_횕_횑횑_횊_횏횂횑횣_53-8); fill-rule:evenodd;"/><polygon points="6.44 68.45 6.44 50.48 71.82 6.7 92.57 6.7 106.97 5.73 110.35 7.07 108.11 19.31 109.25 31.96 33.8 90.4 15.75 89.2 8.13 88.11 6.44 68.45" style="fill:#818dff; fill-rule:evenodd; mix-blend-mode:multiply; opacity:.2;"/><polygon points="65.54 10.91 22.57 20.54 6.44 50.48 65.54 10.91" style="fill:url(#_횂횁_횕_횑횑_횊_횏횂횑횣_77); fill-rule:evenodd; mix-blend-mode:screen; opacity:.5;"/><polygon points="75.36 90.07 86.91 89.8 101.93 85.61 79.75 124.93 75.36 90.07" style="fill:url(#_횂횁_횕_횑횑_횊_횏횂횑횣_78); fill-rule:evenodd; mix-blend-mode:screen; opacity:.5;"/><polygon points="36.17 134.23 86.07 147.01 60.33 144.09 36.17 134.23" style="fill:#76ffea; fill-rule:evenodd; mix-blend-mode:soft-light; opacity:.3;"/><polygon points="36.17 134.23 10.79 168.06 57.57 170.64 60.33 144.09 36.17 134.23" style="fill:#818dff; fill-rule:evenodd; mix-blend-mode:multiply; opacity:.2;"/><polygon points="86.07 147.01 102.38 123.86 36.17 134.23 86.07 147.01" style="fill:#818dff; fill-rule:evenodd; mix-blend-mode:multiply; opacity:.2;"/><polygon points="86.07 147.01 99.19 170.96 102.38 123.86 86.07 147.01" style="fill:#76ffea; fill-rule:evenodd; mix-blend-mode:soft-light; opacity:.3;"/><polygon points="33.8 73.33 26.59 65.03 16.19 53.87 4.19 42.84 4.19 42.01 17.32 54.67 35.49 74.3 33.8 73.33" style="fill:#76ffea; fill-rule:evenodd;"/><polygon points="80.96 6.7 88.46 13.54 100.85 20.88 109.25 31.96 109.25 31.15 104.62 25.44 100.85 20.56 87.99 11.98 80.96 6.7" style="fill:#76ffea; fill-rule:evenodd;"/><polygon points="5.68 92.91 10.94 170.27 15.77 167.98 14.6 89.63 5.68 92.91" style="fill:#4057c9; fill-rule:evenodd; mix-blend-mode:multiply; opacity:.4;"/></g></g></g></svg>