<?xml version="1.0" encoding="UTF-8"?><svg xmlns="http://www.w3.org/2000/svg" xmlns:xlink="http://www.w3.org/1999/xlink" viewBox="0 0 179.52 50.99"><defs><radialGradient id="_횂횁_횕_횑횑_횊_횏횂횑횣_62" cx="89.68" cy="9781.68" fx="89.68" fy="9781.68" r="65.59" gradientTransform="translate(0 -4392.45) scale(1 .45)" gradientUnits="userSpaceOnUse"><stop offset="0" stop-color="#247eff"/><stop offset="1" stop-color="#04c0e8"/></radialGradient><radialGradient id="_횂횁_횕_횑횑_횊_횏횂횑횣_53" cx="89.66" cy="5.11" fx="89.66" fy="5.11" r="63.5" gradientUnits="userSpaceOnUse"><stop offset="0" stop-color="#68fffe"/><stop offset="1" stop-color="#24c7ff"/></radialGradient><radialGradient id="_횂횁_횕_횑횑_횊_횏횂횑횣_80" cx="89.27" cy="47.4" fx="89.27" fy="47.4" r="58.57" gradientUnits="userSpaceOnUse"><stop offset="0" stop-color="#68fffe"/><stop offset="1" stop-color="#24f2ff"/></radialGradient></defs><g style="isolation:isolate;"><g id="Layer_2"><g id="game"><path d="M175.57,37.68l-64.32,7.08s46.08-2.4,66.17-4.97c-1.4,5.14-5.4,8.01-5.4,8.01-46.96,7.19-165.52,0-165.52,0L2.28,23.33l12.75-1.05,5.17,1.14h27.36l-19.89-1.25-11.33-3.11L.42,20.58,0,10.22C61.65,5.11,179.32,3.59,179.32,3.59c.33,11.58-1.84,25.94-3.75,34.09Z" style="fill:url(#_횂횁_횕_횑횑_횊_횏횂횑횣_62); fill-rule:evenodd;"/><path d="M175.77,0l-2.92,34.92,2.72,2.76s3.88-17.54,3.75-34.08l-3.54-3.59Z" style="fill:#4057c9; fill-rule:evenodd; mix-blend-mode:multiply; opacity:.4;"/><polygon points="5.98 3.59 7.75 19.89 .42 20.58 0 10.22 1.28 6.91 5.98 3.59" style="fill:#4057c9; fill-rule:evenodd; mix-blend-mode:multiply; opacity:.4;"/><polygon points="2.28 23.33 5.01 22.1 7.75 21.9 10.19 44.76 6.51 47.8 5.13 41.1 2.28 23.33" style="fill:#4057c9; fill-rule:evenodd; mix-blend-mode:multiply; opacity:.4;"/><path d="M0,10.22l1.28-3.32,4.7-3.32s126.14-.83,169.79-3.59l3.54,3.59S71.43,5.37,0,10.22Z" style="fill:url(#_횂횁_횕_횑횑_횊_횏횂횑횣_53); fill-rule:evenodd;"/><path d="M1.28,6.91s42.21-.88,85.71-.88L0,10.22l1.28-3.32Z" style="fill:#76ffea; fill-rule:evenodd;"/><polygon points="2.28 23.33 5.01 22.1 15.31 21.34 20.21 22.34 32.3 22.46 47.57 23.42 35.08 23.42 20.12 24.46 15.48 22.38 2.28 23.33" style="fill:#76ffea; fill-rule:evenodd;"/><polygon points=".42 20.58 5.01 22.1 15.31 21.34 20.21 22.34 31.87 22.85 47.57 23.42 27.95 21.84 16.34 19.07 .42 20.58" style="fill:#276fca; fill-rule:evenodd;"/><polygon points="47.57 23.42 63.66 24.38 107.57 23.9 47.57 23.42" style="fill:#6ae6e0; fill-rule:evenodd;"/><polygon points="169.92 38.3 177.43 39.79 149.52 43.31 111.25 44.76 169.92 38.3" style="fill:#76ffea; fill-rule:evenodd;"/><path d="M172.03,47.8l-4.56-3.91s-55.48,3.88-86.37,3.61c-30.88-.27-70.91-2.75-70.91-2.75l-3.68,3.04s117,7,165.52,0Z" style="fill:url(#_횂횁_횕_횑횑_횊_횏횂횑횣_80); fill-rule:evenodd;"/><path d="M30.44,49.03l28.73-.49,39.79,2.42s-48.64-.93-68.52-1.93Z" style="fill:#276fca; fill-rule:evenodd;"/><polygon points="178.36 21.24 135.29 23.28 164.3 22.38 178.36 21.24" style="fill:#6ae6e0; fill-rule:evenodd;"/><polygon points="82.48 24.18 85.59 25.07 92.53 24.07 82.48 24.18" style="fill:#76ffea; fill-rule:evenodd;"/><polygon points="161.95 .71 168.61 3.79 166.87 8.13 166.72 4.42 161.95 .71" style="fill:#276fca; fill-rule:evenodd;"/><polygon points="24.92 21.34 29.54 18.4 27.67 22.17 24.92 21.34" style="fill:#276fca; fill-rule:evenodd;"/><polygon points="5.13 39.85 10.36 43.1 5.13 41.1 5.13 39.85" style="fill:#276fca; fill-rule:evenodd;"/><polygon points="48.39 44.76 53.16 41.47 50.05 44.76 48.39 44.76" style="fill:#276fca; fill-rule:evenodd;"/><polygon points="139.44 50.46 135.29 47.8 141.79 50.37 139.44 50.46" style="fill:#276fca; fill-rule:evenodd;"/><polygon points="48.39 44.76 49.77 44.42 53.16 41.47 50.05 44.76 48.39 44.76" style="fill:#76ffea; fill-rule:evenodd;"/><polygon points="5.13 41.1 5.5 41.96 10.36 43.1 5.13 41.1" style="fill:#76ffea; fill-rule:evenodd;"/><polygon points="136.44 48.54 138.05 50.46 139.02 50.54 136.44 48.54" style="fill:#76ffea; fill-rule:evenodd;"/><polygon points="34.21 8.57 52.54 8.57 117.71 6.03 166.72 4.42 165.99 3.85 72.12 6.75 34.21 8.57" style="fill:#6ae6e0; fill-rule:evenodd;"/><path d="M168.61,3.79l8.82.62.93,7.33-1.14,8.42-3.74,1.07h4.87s1.74-11.57.96-17.65l-10.7.2Z" style="fill:#6ae6e0; fill-rule:evenodd;"/><polygon points="6.51 47.8 5.5 41.96 6 41.1 5.13 39.85 5.13 34.56 2.28 23.33 4.88 41.1 6.51 47.8" style="fill:#76ffea; fill-rule:evenodd;"/><polygon points="170.91 38.19 175.99 35.65 175.57 37.68 170.91 38.19" style="fill:#76ffea; fill-rule:evenodd;"/><polygon points="160.88 49.13 174.07 45.88 172.03 47.8 160.88 49.13" style="fill:#276fca; fill-rule:evenodd;"/><polygon points="166.38 .51 173.6 .71 176.61 2.08 176.87 3.59 179.32 3.59 175.77 0 166.38 .51" style="fill:#fcca70; fill-rule:evenodd; mix-blend-mode:soft-light;"/><polygon points="1.28 6.91 12.88 6.7 7.84 6.03 4.42 6.21 3.86 5.74 5.76 3.85 8.35 4.32 10.88 3.85 19.1 3.49 5.98 3.59 1.28 6.91" style="fill:#fcca70; fill-rule:evenodd; mix-blend-mode:soft-light;"/><polygon points="20.21 48.54 126.54 6.53 166.72 4.42 148.31 40.68 111.25 44.76 108.83 50.99 20.21 48.54" style="fill:#818dff; fill-rule:evenodd; mix-blend-mode:multiply; opacity:.2;"/><polygon points="20.21 48.54 39.85 17.15 126.54 6.53 20.21 48.54" style="fill:#76ffea; fill-rule:evenodd; mix-blend-mode:soft-light; opacity:.3;"/><polygon points="166.72 4.42 170.91 3.96 170.91 38.19 148.31 40.68 166.72 4.42" style="fill:#76ffea; fill-rule:evenodd; mix-blend-mode:soft-light; opacity:.3;"/><polygon points="148.31 40.68 126.54 6.53 127.33 24.07 148.31 40.68" style="fill:#76ffea; fill-rule:evenodd; mix-blend-mode:soft-light; opacity:.3;"/><polygon points="39.85 17.15 34.21 8.57 15.23 9.28 17.88 48.42 20.21 48.54 39.85 17.15" style="fill:#acabff; fill-rule:evenodd; mix-blend-mode:multiply; opacity:.2;"/><polygon points="17.88 48.42 16.68 30.68 39.85 17.15 20.21 48.54 17.88 48.42" style="fill:#818dff; fill-rule:evenodd; mix-blend-mode:multiply; opacity:.2;"/><polygon points="162.77 22.17 156.82 18.4 150.26 10.22 132.45 5.2 134.2 5.11 141.34 7.56 150.72 10.12 157.81 17.84 165.28 21.86 162.77 22.17" style="fill:#6ae6e0; fill-rule:evenodd;"/></g></g></g></svg>